<svg xmlns="http://www.w3.org/2000/svg" id="Layer" viewBox="0 0 420 420"><defs><style>.cls-1,.cls-2{fill:#fff;stroke-width:0}.cls-2{fill:#c8102e}</style></defs><path d="M210 420C94.25 420 0 325.75 0 210S94.25 0 210 0s210 94.25 210 210-94.25 210-210 210" class="cls-2"/><path d="M210 410.37C99.55 410.37 9.63 320.45 9.63 210S99.55 9.63 210 9.63 410.37 99.55 410.37 210 320.45 410.37 210 410.37" class="cls-1"/><path d="M210 400.59c-105.14 0-190.59-85.45-190.59-190.59S104.86 19.41 210 19.41 400.59 104.86 400.59 210 315.14 400.59 210 400.59" class="cls-2"/><path d="M340.27 210c0 71.91-58.22 130.27-130.27 130.27S79.73 281.91 79.73 210 137.95 79.73 210 79.73c71.91 0 130.27 58.36 130.27 130.27" class="cls-1"/><path d="M210 89.22c-39.93 0-75.26 19.13-97.32 48.87 3.21.98 9.36 2.65 16.89 4.89 11.87 3.49 51.38 15.08 58.78 17.45 21.5 6.98 27.23 9.63 33.23 16.06 6 6.56 15.22 13.96 24.3 20.25 9.08 6.28 13.4 13.12 13.4 24.02s-8.38 20.11-13.54 23.18c0 0 1.82-5.17-.7-7.54s-10.47-6.7-30.72-5.31c-20.25 1.54-47.47 11.31-65.9 21.22 0 0 8.8-13.82 21.92-20.11 0 0-10.89 0-71.63 26.53 18.71 43.01 61.58 73.16 111.42 73.16 67.02 0 121.48-54.32 121.48-121.48-.14-66.74-54.45-121.2-121.62-121.2m0 216.14c-26.53 0-50.41-10.89-67.58-28.48C191.42 251.6 222 258.16 222 263.05s-7.54 16.76-7.54 16.76c39.93-5.59 69.12-29.74 69.12-62.13s-30.44-48.17-38.12-52.92c-8.24-5.17-4.33-12.15-31.56-22.34-16.62-6.28-39.79-12.43-48.87-14.66 13.4-7.26 28.76-11.45 45.1-11.45 52.22 0 94.67 42.45 94.67 94.67-.14 51.94-42.45 94.39-94.81 94.39" class="cls-2"/><path d="M209.02 179.14s-6.98.56-14.1-2.93-18.01-11.45-27.37-2.79c0 0 7.96-.98 7.26 1.12s-1.4 14.24 9.36 18.85c11.03 4.61 23.6 1.12 24.85-14.24" class="cls-2"/><path d="m67.3 307.04 1.26 1.68 17.45-13.4-1.26-1.68 3.91-3.07 5.59 7.26c4.19 5.45 3.77 9.49-.42 12.71-2.93 2.23-5.59 2.37-8.24.98 1.12 3.63.14 6-3.35 8.66-4.61 3.49-9.22 2.09-13.13-2.79l-5.72-7.4 3.91-2.93Zm6 7.82c1.54 1.95 3.63 2.37 6.14.42s2.51-3.91.84-5.86l-1.12-1.4-6.98 5.45 1.12 1.4Zm10.47-8.66c1.54 1.95 3.49 2.09 5.72.42 2.23-1.68 2.51-3.63.84-5.72l-.84-1.12-6.7 5.17.98 1.26ZM88.11 332.17l1.26 1.12 22.9-16.06 4.61 4.05-12.85 24.85 1.12.98-3.21 3.63-7.82-6.84 3.07-3.49 1.95 1.68 1.68-3.07-4.61-4.05-2.79 2.09 1.95 1.68-3.07 3.49-7.54-6.56 3.35-3.49Zm15.08 3.21 5.31-9.36-8.66 6.42 3.35 2.93ZM118.4 358.84l-1.12 2.09-3.63-2.09 5.31-9.22 4.05 2.37c-1.95 3.77-1.54 6 .7 7.26 2.09 1.26 3.63.84 4.75-1.12 2.65-4.61-7.54-11.59-2.65-19.69 2.65-4.61 7.26-5.45 11.03-3.21 2.23 1.26 3.49 2.93 3.21 5.03l1.12-2.09 3.63 2.09-5.03 8.8-4.19-2.37c1.54-3.07 1.54-5.03-.42-6.14-1.95-1.12-3.35-.56-4.33.98-2.51 4.33 7.4 11.45 2.65 19.55-2.93 5.03-7.54 5.45-11.73 3.07-1.95-1.4-3.49-3.07-3.35-5.31M146.75 370.71l1.95.7 6.85-20.94-1.96-.7 1.4-4.61 9.35 2.93-1.39 4.61-1.82-.56-3.07 9.77 8.38-8.09-1.12-.42 1.4-4.61 8.51 2.79-1.53 4.75-1.96-.7-6.7 6.15.98 15.21 1.67.42-1.53 4.61-9.08-2.93 1.4-4.47 1.67.56-.7-9.22-3.9 3.77-1.12 3.63 1.67.42-1.39 4.47-9.36-2.93zM185.01 380.76l2.09.28 1.96-21.92-2.1-.14.42-5.02 19.13 1.67-.98 10.05-5.44-.41.42-5.45-5.45-.56-.7 8.52 4.89.56-.42 4.88-4.89-.41-.83 8.93 5.58.56.42-6.14 5.58.56-.83 10.61-19.27-1.68zM227.17 381.6l2.66-.42-2.94-22.06-3.35.42.7 5.45-4.61.69-1.39-10.05 21.92-2.93 1.4 10.05-4.61.56-.7-5.44-3.35.41 2.93 22.21 2.65-.42.56 4.74-11.31 1.54zM261.8 374.76l1.95-.7-7.82-20.53-1.95.7-1.82-4.61 8.66-3.21c6.42-2.51 10.19-.84 12.01 4.05 1.26 3.35.7 6-1.4 8.1 3.77-.14 5.86 1.68 7.4 5.72 2.09 5.45-.7 9.49-6.56 11.73l-8.8 3.35-1.68-4.61Zm3.91-16.06c2.37-.84 3.07-2.79 2.09-5.31-.98-2.65-2.65-3.35-5.17-2.51l-1.26.42 2.93 7.82 1.4-.42Zm5.17 12.57c2.37-.84 3.35-2.79 2.23-5.72s-2.93-3.49-5.45-2.51l-1.68.7 3.21 8.24 1.68-.7ZM290.43 362.89l1.4-.84-8.52-26.53 5.31-3.21 19.97 19.55 1.26-.84 2.51 4.05-8.8 5.45-2.51-3.91 2.23-1.4-2.37-2.51-5.31 3.21 1.12 3.35 2.23-1.4 2.51 3.91-8.52 5.17zm7.4-13.54-7.4-7.82 3.49 10.19zM320.59 342.51l1.53-1.4-15.08-16.06-1.53 1.4-3.36-3.63 7.68-7.12 3.35 3.63-1.67 1.53 15.08 16.2 3.77-3.49-4.19-4.33 4.05-3.91 7.26 7.82L323.8 346zM342.93 320.03l1.11-1.68-17.59-12.98-1.26 1.53-3.91-2.93 6.15-8.38 4.05 2.93-1.4 1.96 17.87 13.12 2.93-4.05-4.88-3.63 3.35-4.46 8.52 6.42-11.17 15.08zM64.09 171.46l.56-1.68-23.46-15.22 2.09-5.86 27.79 2.65.56-1.4 4.47 1.54-3.35 9.77-4.47-1.54.84-2.37-3.49-.42-2.09 5.86 2.93 1.82.84-2.51 4.47 1.54-3.21 9.36-4.47-1.54Zm-2.65-15.22-10.61-1.4 9.08 5.59 1.54-4.19ZM77.63 138.09l1.4-2.23-19.13-11.45-1.81 2.93 4.74 2.79-2.37 4.05-8.66-5.16 11.31-19.13 8.66 5.16-2.38 4.05-4.74-2.79-1.68 2.93 19.13 11.45 1.4-2.37 4.19 2.51-5.87 9.78zM93.27 114.63l1.4-1.53-16.06-14.94-1.4 1.39-3.63-3.35 7.12-7.68 3.64 3.49-1.54 1.68L99 108.77l3.49-3.63-4.47-4.19 3.77-4.05 7.82 7.26-12.71 13.69zM113.94 93.69l1.4-.98-10.19-25.97 5.03-3.63 21.08 18.29 1.26-.84 2.79 3.91-8.38 6-2.65-3.77 2.09-1.54-2.51-2.37-5.03 3.49 1.4 3.21 2.09-1.54 2.65 3.77-8.1 5.72-2.93-3.77Zm6.7-13.96-7.82-7.4 4.19 9.91zM142.56 74.98l1.81-.7-8.23-20.38-1.96.69-1.81-4.6 7.54-3.08 13.68 13.55-4.89-11.73-1.67.7-1.96-4.61 8.8-3.63 1.95 4.61-1.95.84 10.19 24.71-5.02 2.09-14.67-14.1 5.31 12.71 1.68-.7 1.81 4.47-8.8 3.63zM178.03 62.83l2.65-.42-3.91-22.06-3.35.56.97 5.45-4.6.83-1.82-9.91 21.92-3.91 1.68 9.91-4.61.84-.98-5.44-3.35.56 3.91 22.06 2.66-.42.83 4.61-11.17 2.09zM201.62 59.34h1.68l7.12-26.95 6.14.14 6.14 27.23h1.54l-.14 4.75-10.33-.14.14-4.61h2.51l-.56-3.49-6.14-.14-.84 3.35h2.65l-.14 4.61-9.91-.14zm13.54-7.26-1.95-10.61-2.51 10.47 4.47.14ZM247.28 63.81l1.96.56 7.12-20.81-1.96-.55 1.68-4.75 9.77 3.35-1.67 4.47-1.96-.7-2.65 7.68 6.42 2.23 2.65-7.68-2.09-.7 1.54-4.6 9.77 3.35-1.54 4.75-2.09-.7-6.98 20.8 1.95.7-1.53 4.47-9.78-3.35 1.54-4.33 2.09.7 2.8-8.38-6.43-2.23-2.93 8.37 2.09.7-1.53 4.47-9.78-3.35zM279.53 76.1l1.4.84 19.97-19.55 5.31 3.21-8.66 26.53 1.26.84-2.51 4.05-8.8-5.45 2.51-3.91 2.23 1.4 1.26-3.21-5.31-3.21-2.51 2.51 2.23 1.4-2.51 3.91-8.52-5.31zm15.36.7 3.77-10.05-7.54 7.68zM321.28 77.63l-1.39-1.39 3.49-3.49 6.98 6.84-3.35 3.49-1.4-1.4-8.52 11.59 15.78-11.17 3.63 3.63-10.89 16.06 11.45-8.8-1.26-1.25 3.36-3.5 6.56 6.57-3.49 3.49-1.4-1.4-22.2 15.92-3.91-3.91 11.31-16.62-16.48 11.59-3.91-3.91zM331.2 120.22l1.11 1.67 18.57-11.72-1.11-1.68 4.19-2.79 5.3 8.38-4.19 2.51-.97-1.54-8.66 5.59 11.59-.84-.56-1.12 4.05-2.51 4.75 7.54-4.19 2.65-1.12-1.81-9.08.42-8.79 12.28.84 1.54-4.05 2.51-5.17-8.1 3.91-2.51.98 1.54 5.44-7.68-5.44.56-3.21 1.95.97 1.54-3.91 2.51-5.3-8.38zM346.42 152.47l-2.23.84-1.54-3.91 9.91-3.77 1.68 4.33c-3.91 1.68-4.89 3.77-4.05 6.14.84 2.23 2.37 2.93 4.33 2.09 5.03-1.95 1.4-13.68 10.19-17.03 4.89-1.95 9.08.28 10.61 4.33.84 2.37.98 4.47-.56 5.86l2.23-.84 1.54 3.91-9.49 3.63-1.68-4.47c3.07-1.4 4.33-2.93 3.49-5.17-.84-2.09-2.37-2.51-3.91-1.95-4.61 1.82-1.4 13.54-10.05 16.89-5.45 2.09-9.36-.56-11.03-5.03-.7-1.95-.84-4.33.56-5.86" class="cls-1"/></svg>