<svg xmlns="http://www.w3.org/2000/svg" id="Layer" viewBox="0 0 310.88 454.94"><defs><style>.cls-2,.cls-3{stroke-width:0}.cls-2{fill:#860038}.cls-3{fill:#bc945c}</style></defs><path d="M300.52 191.05c0-2.63 0-5.69-.15-9.05v-11.24c-.15-21.02-1.17-62.91-3.07-85.82-.15-2.04-.29-3.79-.44-5.55l-.44-4.38-3.65-2.77q-4.155-3.285-9.63-6.57c-7.15-4.38-16.05-9.05-26.56-13.57-42.47-20.73-98.52-39.85-98.96-39.99l-2.48-.88-2.48.88c-.44.15-50.65 17.81-91.8 37.36-8.03 3.5-15.33 6.86-21.6 10.07-8.76 4.52-16.05 9.05-21.6 13.43l-3.65 2.77-.44 4.52c-.29 3.36-.58 7.44-.88 12.41-1.46 24.08-2.04 60.28-2.19 78.81v20.43c.15 87.13 38.24 149.89 70.2 187.26 34.44 40.43 68.74 60.13 70.2 60.86l5.25 3.07 5.25-3.07c1.46-.88 35.61-20.73 69.77-61.15 31.67-37.66 69.47-100.71 69.33-187.84" style="stroke-width:0"/><path d="M234.84 381.81c32.26-38.09 70.5-102.02 70.35-190.61v-20.29c-.15-21.16-1.17-63.2-3.07-86.11-.15-2.19-.29-3.94-.44-5.55l-.44-4.52-.15-2.04-1.61-1.17-3.65-2.77c-2.92-2.19-6.28-4.52-10.07-6.86-7.3-4.52-16.49-9.2-27-13.87-42.46-20.73-98.94-39.99-99.53-40.28l-2.48-.88-1.46-.58-1.61.58-2.48.88c-.44.15-50.65 17.81-92.1 37.66-8.17 3.5-15.47 6.86-21.89 10.22-9.05 4.67-16.49 9.34-22.33 13.87l-3.65 2.77-1.61 1.31-.15 2.04-.44 4.52c-.29 3.36-.58 7.59-.88 12.55-1.46 24.08-2.04 60.42-2.19 79.11v20.14c.29 88.59 38.82 152.37 71.22 190.32 35.03 41.01 69.91 61.15 71.37 61.88l5.25 3.07 2.34 1.31 2.34-1.31 5.25-3.07c1.46-1.02 36.34-21.16 71.08-62.32m-73.56 58.09-5.25 3.07-5.25-3.07c-1.46-.88-35.61-20.58-70.2-60.86-31.82-37.36-69.91-100.12-70.2-187.26v-20.43c.15-18.54.73-54.88 2.19-78.81.29-4.96.58-9.05.88-12.41l.44-4.52 3.65-2.77c5.55-4.23 12.84-8.76 21.6-13.43 6.28-3.21 13.57-6.71 21.6-10.07 41.16-19.57 91.23-37.23 91.66-37.37l2.48-.88 2.48.88c.58.15 56.63 19.27 98.96 39.99 10.51 4.67 19.41 9.2 26.56 13.57q5.475 3.285 9.63 6.57l3.65 2.77.44 4.52c.15 1.61.29 3.5.44 5.4 1.9 22.77 2.77 64.66 3.07 85.82v11.24c0 3.36.15 6.42.15 9.05.15 87.13-37.51 150.19-69.18 187.55-34.3 40.72-68.31 60.72-69.77 61.45" class="cls-3"/><path d="M310.88 181.13v-10.51c-.15-21.16-1.17-63.49-3.07-86.55-.15-2.19-.29-4.09-.58-5.69l-.44-4.52-.15-2.04-.29-2.48-1.9-1.46-1.61-1.17-3.65-2.77c-3.07-2.34-6.57-4.82-10.51-7.15-7.59-4.67-16.93-9.34-27.73-14.3-42.31-20.74-97.63-39.57-99.96-40.45l-2.48-.88-1.46-.58-1.9-.58-1.9.58-1.46.58-2.48.88c-.44.15-51.08 17.95-92.68 37.8-8.03 3.5-15.47 6.86-22.04 10.36-9.34 4.82-17.08 9.63-23.21 14.45l-3.65 2.77-1.75 1.31-1.9 1.46-.29 2.48-.15 2.04-.44 4.52c-.29 3.5-.73 7.74-1.02 12.84C.73 116.32.15 152.81 0 171.49v20.29c.29 90.34 39.7 155.29 72.68 193.97 35.61 41.74 71.37 62.32 72.83 63.2l5.25 3.07 2.34 1.31 2.77 1.61 2.77-1.61 2.34-1.31 5.25-3.07c1.46-.88 37.07-21.46 72.54-63.49 32.84-38.82 71.95-104.06 71.66-194.41v-9.49l.44-.44ZM158.51 447.06l-2.34 1.31-2.34-1.31-5.25-3.07c-1.46-.88-36.34-21.02-71.37-61.88-32.4-37.95-71.08-101.74-71.23-190.33v-20.29c.15-18.54.73-55.02 2.19-79.11.29-4.96.58-9.2.88-12.55l.44-4.52.15-2.04 1.61-1.31 3.5-2.77c5.69-4.52 13.28-9.2 22.33-13.87 6.42-3.36 13.72-6.71 21.89-10.22 41.45-19.85 91.65-37.36 92.09-37.66l2.48-.88 1.61-.58 1.46.58 2.48.88c.58.15 57.07 19.41 99.54 40.28 10.65 4.67 19.7 9.34 27 13.87 3.79 2.34 7.15 4.67 10.07 6.86l3.65 2.77 1.61 1.17.15 2.04.44 4.52c.15 1.61.29 3.36.44 5.55 1.9 22.91 2.77 64.95 3.07 86.11v20.43c.29 88.59-38.09 152.52-70.35 190.61-34.74 41.16-69.62 61.45-71.08 62.32l-5.11 3.07Z" class="cls-2"/><path d="M232.21 238.63v-11.24l-2.77-2.77c-35.32-33.42-110.92 10.8-136.47 32.11l-12.7 19.7 15.76-3.94c-24.08 30.5-15.47 50.35-14.45 52.4 2.63 7.15 8.47 12.84 17.81 16.64 7.15 2.77 15.33 3.21 22.33 2.77 30.07-1.46 65.68-20.29 88.59-40.43l.58-.44 4.52-23.06-8.9 4.96c-30.94 13.72-55.9 21.31-55.9 21.31-16.35 5.11-23.79 5.98-29.19 4.82l-.58-.15c-1.46-.58-1.75-1.9-1.75-2.34-.29-10.22 17.22-32.26 26.13-41.74 8.17-8.9 21.16-18.68 32.11-23.35 7.3-3.07 12.11-4.38 14.3-4.09-.58 1.9-1.61 4.23-3.07 7.15 0 0-11.68 23.21-12.26 24.23l55.9-32.55Z" class="cls-3"/><path d="M162.45 237.17c-10.07 5.4-21.75 16.2-25.25 20-29.48 31.67-50.21 73.85 14.6 53.42 0 0 25.25-7.74 56.48-21.46-88.45 75.02-172.08 43.93-90.05-34.88-7.44 1.75-15.03 3.36-22.48 5.4 26.27-21.89 98.37-62.76 130.77-32.11l-34.44 21.16c14.74-28.9-11.82-22.04-29.63-11.53" class="cls-2"/><path d="m97.5 81.3 4.23 4.23v3.06l-4.67 4.82V86.7l-.73-.59H93.7l-.58.73v17.95l.58.59h2.77l.59-.59v-2.77l4.81-4.82v8.76l-4.23 4.23h-5.11l-4.23-4.23V85.53l4.23-4.09zM109.03 81.3v24.08h7.29l-.87 4.81h-11.09l-.15-27.43-.29-1.46zM129.02 81.3v4.81h-5.98v6.28h4.81v4.23h-4.81v8.76h6.13v4.81h-10.8l-.15-27.14-.29-1.75zM146.39 81.3l-4.23 28.75h-5.26l-2.77-3.5-3.36-25.25h4.67l3.21 23.64 2.92-23.64zM159.09 81.15v4.82h-5.99v6.42h4.82v4.08l-4.82.15v8.61h5.99v4.82h-10.8v-27L148 81.3zM166.24 81.15l.15 24.08h7.15l-.88 4.82h-11.09V82.61l-.29-1.46zM186.24 81.15l4.23 28.9h-4.82l-.73-5.69h-4.52l-.73 5.69h-4.82l3.79-27-.29-1.75 7.88-.15Zm-5.25 18.39h3.36l-1.75-13.28zM205.94 109.9h-4.53l-4.52-15.61v15.61l-4.82.15V82.9l-.43-1.75h4.96l4.52 14.59-.14-14.59h4.81zM222.14 85.24v20.73l-3.94 3.94h-9.92V82.76l-.29-1.75h9.92zm-4.82 1.17-.58-.58h-3.65v19.27h3.65l.58-.58v-18.1ZM42.18 120.85l9.05 8.9v6.42l-10.07 10.07-.15-13.86-1.31-1.31h-5.69l-1.32 1.31.15 38.09 1.31 1.32h5.7l1.31-1.32v-5.98l10.07-10.07v18.53l-8.76 8.91h-10.8l-8.9-8.91-.15-43.2 8.91-8.76zM77.79 120.85l9.05 60.86H76.62l-1.61-11.97h-9.63l-1.46 11.97H53.85l8.03-57.21-.58-3.79 16.49.15ZM66.7 159.53h7.15l-3.5-27.88zM117.2 120.7l-8.61 61.01H97.35l-5.69-7.59-7.45-53.27h10.08l6.56 50.06 6.28-50.21zM139.09 120.7l9.05 60.86h-10.22l-1.61-11.97h-9.63l-1.46 11.97h-10.07l8.03-57.21-.58-3.79 16.49.15ZM128 159.38h7.15l-3.5-27.88zM161.72 120.56l.14 50.79h15.33l-1.9 10.22h-23.5l-.15-57.8-.58-3.07zM191.34 120.56l.15 60.86-10.22.15-.14-57.22-.59-3.79zM219.37 120.41v10.22h-12.7v13.28h10.22v8.9h-10.22l.14 18.54 12.7-.15v10.22H196.6l-.15-57.07-.58-3.79zM244.91 120.41l8.9 8.76v15.18l-8.32 5.69 8.47 10.8v20.29h-10.07v-16.49l-6.28-9.34-2.63 1.75v24.08h-10.07l-.15-57.07-.58-3.79 20.73.15Zm-10.22 26.71 8.9-6.42v-8.9l-1.31-1.31h-7.59v16.64ZM277.89 139.38v-7.58l-1.31-1.32h-6.28l-1.31 1.32v7.58l19.12 15.18v17.81l-8.76 8.9h-11.38l-8.9-8.9-.15-17.66 10.22 6.28v8.9l1.31 1.31 6.28-.14 1.31-1.17v-10.22l-19.12-15.18v-15.32l8.9-8.76 11.39-.15 8.9 8.91v16.49z" class="cls-3"/></svg>