<svg xmlns="http://www.w3.org/2000/svg" id="Layer" viewBox="0 0 420 420"><defs><style>.cls-1{fill:#fff}.cls-1,.cls-2,.cls-3,.cls-4{stroke-width:0}.cls-2{fill:#8b2332}.cls-3{fill:#0d2240}.cls-4{fill:#ffc627}</style></defs><path d="M210 420C94.18 420 0 325.82 0 210S94.18 0 210 0s210 94.18 210 210-94.18 210-210 210" class="cls-4"/><path d="M210 10.82c109.92 0 199.32 89.26 199.32 199.18S319.92 409.18 210 409.18 10.82 319.78 10.82 210 100.22 10.82 210 10.82" class="cls-2"/><path d="M399.06 210.56c0 104.72-84.9 189.62-189.62 189.62S19.96 315.28 19.96 210.56 104.72 20.94 209.44 20.94s189.62 84.9 189.62 189.62" class="cls-3"/><path d="M209.44 350.14c76.04 0 137.75-61.85 137.75-137.89S285.34 74.5 209.44 74.5 71.69 136.49 71.69 212.25c-.14 76.04 61.71 137.89 137.75 137.89" class="cls-2"/><path d="M80.68 212.25c0-70.98 57.63-128.61 128.61-128.61S337.9 141.27 337.9 212.25s-57.63 128.61-128.61 128.61S80.68 283.23 80.68 212.25" class="cls-3"/><path d="M322.59 241.2c.14-22.07-11.81-52.29-22.35-72.39l-15.6 8.71-1.55-2.53-3.94 2.53-155.18 97.55v.14l-7.17 8.57-.14-.28c-2.25-.42-5.06-2.67-7.31-6.47-2.39-3.51-3.23-7.31-2.67-9.14l-.14-.28 10.68-2.81.14.14 79.84-52.01-53.84-33.88-6.75-4.22-1.69 2.53-15.6-8.71c-10.68 20.24-22.35 50.46-22.35 72.39-8.15-25.58.28-60.44 11.81-82.93l.14-.14-2.81-1.69 9.28-14.34 2.67 1.97c15.6-19.82 43.43-41.89 70-45.26-19.96 9.14-42.45 32.33-56.37 50.46l14.48 10.54-1.83 2.53 3.65 2.53 61.43 39.92L270 165.27l4.64-2.95-1.83-2.53 14.48-10.54c-13.78-17.85-36.27-41.33-56.22-50.46 26.57 3.37 54.4 25.44 70.14 45.26l2.53-1.97 9.28 14.34-2.81 1.69c12.09 22.91 20.52 57.77 12.37 83.07m-20.1 23.76-73.65-47.65-12.79 7.59 79.84 50.32-.14.14 7.17 8.57.28-.28c2.25-.42 5.06-2.67 7.31-6.47 2.25-3.51 3.23-7.31 2.67-9.14l.14-.28-10.82-2.81Z" class="cls-4"/><path d="m222.51 111.75-5.48 7.31-7.73-18.14v84.2l25.72-32.89 25.86 6.75z" class="cls-4"/><path d="M222.51 131.71v-19.82l-5.48 7.17zM209.3 100.92l-46.53 56.65 20.52-5.2 26.01 32.75z" class="cls-1"/><path d="M180.76 315.14c6.75-6.47 15.32-10.4 24.6-11.39v-12.93H169.8c.84 9.56 4.78 17.85 10.96 24.32M205.36 327.09v-15.32c-7.03.84-13.21 3.65-18.55 8.43 5.48 3.8 11.95 6.04 18.55 6.89" class="cls-4"/><path d="M213.37 247.95v15.18c6.89-.84 13.35-3.65 18.41-8.43a40.13 40.13 0 0 0-18.41-6.75M237.97 260.04c-6.75 6.47-15.32 10.4-24.6 11.24v11.81h35.56c-1.12-9-5.2-17.15-10.96-23.05M205.36 263.13v-15.18c-6.89.7-13.07 3.09-18.41 6.89 5.2 4.64 11.67 7.45 18.41 8.29" class="cls-1"/><path d="M213.37 290.82v12.79c9.28.84 17.85 4.78 24.6 11.39 6.18-6.47 10.26-14.76 11.1-24.18z" class="cls-4"/><path d="M169.94 282.95h35.56v-11.81c-9.28-.84-17.71-4.92-24.6-11.24-6.04 6.04-9.98 14.2-10.96 23.05" class="cls-1"/><path d="M213.37 327.09c6.89-.7 13.07-3.09 18.41-6.75-5.2-4.78-11.67-7.59-18.41-8.43zM362.37 193.41l5.06 8.58-12.51 11.66 16.16-6.04 5.06 8.72.85-9.84 10.68-.57-8.71-5.34 10.82-17.15-17.85 14.48zM56.65 193.27l-4.92 8.58 12.37 11.66-16.17-6.04-5.06 8.71-.84-9.83-10.83-.57 8.86-5.34-10.82-17.15 17.85 14.48z" class="cls-4"/><path d="m84.2 132.13-25.02-17.71 5.62-7.87c.98-1.27 2.11-2.53 3.23-3.51.7-.7 1.55-1.27 2.39-1.69.14-.14.28-.28.42-.56.14-.14.14-.28.28-.42l.28-.56 22.07 15.6c-.14 1.55-.56 2.95-1.12 4.5-.56 1.41-1.27 2.67-2.25 3.94l-.14.14-5.76 8.15ZM68.46 109.5c-.56.84-.56 1.83-.14 2.39l.42.42 15.32 10.96c.84.14 1.69-.14 2.11-.84l.14-.14c.7-.98.56-2.25-.14-2.67l-14.9-10.68c-.98-.84-2.11-.56-2.81.56M121.31 91.93l-14.34-21.79-1.41.98-2.53-4.07 15.89-10.4 2.53 3.93-7.74 5.2 4.36 6.47 6.05-3.94 1.4 4.22-5.2 3.37 5.06 7.45 7.87-5.06 2.53 3.94zM180.9 65.92l-6.18-10.26-.7.14 2.39 11.11-7.31 1.4-5.2-25.44-1.55.28-.98-4.64 7.73-1.4 7.17 10.12.56-.14-2.39-11.11 7.31-1.54 6.32 29.94zM229.82 64.1l.7-31.06 6.89 1.12-.98 18.98.7.14 5.62-18.27 6.89 1.12c-2.67 8.15-9.42 27.13-10.26 29.38zM338.47 116.81l-1.69-2.25-8.71 6.89-4.36-5.76L348.03 97l5.9 7.59c.98 1.27 1.83 2.53 2.53 4.08.42.84.84 1.83 1.12 2.53.14.28.28.42.42.56l.28.28.42.42-12.93 9.98c-.7-.42-1.55-.84-2.25-1.27l-.28-.14-7.03 10.68-4.22-5.34 6.47-9.56Zm11.39-9.42c-.56-.7-1.41-1.12-2.11-.98-.14 0-.28.14-.42.28l-5.76 4.5c-.84.7-.7 1.83-.14 2.53v.14c.7.98 1.83 1.27 2.53.84l5.9-4.36c.84-.7.84-1.97 0-2.95M280.56 80.96l13.5-22.35-1.41-.84 2.39-4.08 16.31 9.98-2.53 3.94-7.88-4.92-3.93 6.61 6.18 3.79-3.51 3.66-5.2-3.38-4.64 7.59 8.15 4.92-2.53 4.08zM157.85 383.73c-1.69-.42-3.09-1.12-4.64-2.11-1.55-.84-2.67-1.83-3.8-2.81l7.87-26.14c1.55-.42 3.09-.42 4.78-.42 1.83.14 3.37.42 5.06.98 1.69.42 3.09 1.12 4.64 2.11.7.42 1.41.84 1.97 1.27.28.28.7.42 1.12.56.14 0 .28.14.42.14l.7.14-.28.7-2.39 7.45-7.03-2.11.98-3.23c.28-.84-.28-1.83-1.27-2.25-.14 0-.28-.14-.42-.14-1.12-.42-2.39.14-2.53 1.12l-5.76 18.69c-.14.42 0 .84.14 1.27.28.56.84.98 1.55 1.12 1.12.42 2.39-.14 2.53-1.12l2.53-7.87-2.25-1.27 2.39-3.8 8.29 2.53-4.78 15.88c-1.55.42-3.09.42-4.78.42-1.83-.42-3.65-.7-5.06-1.12M219 390.62c-1.69.14-3.37 0-5.06-.28s-3.09-.84-4.5-1.55l-1.55-27.27c1.27-.84 2.67-1.55 4.36-1.97s3.37-.84 5.06-.84c1.69-.14 3.37 0 5.06.28.84.14 1.55.28 2.39.56.42.14.84.14 1.12.14h.42l.7-.14v.7l.42 7.73-7.31.42-.14-3.37c0-.84-.84-1.69-1.97-1.69h-.42c-1.27.14-2.25.98-2.11 1.97l.98 19.54c0 .42.28.84.56 1.12.42.42 1.12.56 1.83.56 1.27 0 2.25-.98 2.11-1.97l-.42-8.29-2.53-.28.84-4.36 8.57-.42.98 16.59c-1.27.84-2.67 1.55-4.36 1.97-1.55.42-3.37.7-5.06.84M102.61 355.48c-1.41-.98-2.53-2.25-3.65-3.51a14.1 14.1 0 0 1-2.53-4.08l14.9-19.12-1.27-.98 2.81-3.65 7.17 5.48-15.6 20.24c-.56.84-.28 2.11.7 2.67.98.7 2.25.7 2.81-.14l15.74-20.24 5.76 4.5-17.85 23.05c-1.55-.14-2.95-.7-4.5-1.41-1.83-.84-3.23-1.69-4.5-2.81M323.15 349.86l-16.86-19.82-4.5 3.94-3.24-3.66 14.76-12.65 3.24 3.66-4.5 3.93 16.73 19.68zM361.1 307.27c-.84 1.41-1.97 2.67-3.09 3.94-1.12 1.12-2.53 2.11-3.8 2.67l-6.33-3.94 3.8-6.18 3.23 2.11c.42.28.98.28 1.41.14.56-.14.98-.56 1.27-.98v-.14c.56-.98.42-2.25-.42-2.67l-7.17-4.36-4.22 6.61c-1.12 1.83-3.09 2.53-4.5 1.69-.28-.14-.56-.28-.7-.42l-9.98-6.33c0-1.55.42-2.95.98-4.64s1.27-3.09 2.25-4.5c.84-1.41 1.97-2.67 3.09-3.94.7-.7 1.41-1.27 2.11-1.83.28-.28.42-.42.56-.7.14-.14.14-.28.14-.42l.28-.56 7.31 4.5-3.8 6.18-2.95-1.97c-.14-.14-.28-.14-.42-.14-.84-.14-1.69.28-2.25 1.12v.14c-.56.98-.42 2.25.42 2.67l5.06 3.09.14.14.28.14 4.08-6.47c1.27-1.97 3.23-2.53 4.78-1.83l1.27.84.28.14 9.84 6.18c0 1.55-.42 2.95-.98 4.64-.28 2.11-1.12 3.65-1.97 5.06M261.45 355.48l-1.55.7-1.69-4.21 17.57-7.31 1.83 4.36-8.71 3.51 2.95 7.17 6.6-2.95.85 4.92-5.77 2.39 3.52 8.01 8.57-3.52 1.97 4.36-16.02 6.75zM61.85 312.33l7.31-9.56-.43-.56-9.41 6.32-4.22-6.18 21.65-14.48-.99-1.4 3.94-2.53 4.5 6.6-6.89 10.4.56.43 9.42-6.19 4.08 6.04-25.45 17.15z" class="cls-1"/></svg>