<svg xmlns="http://www.w3.org/2000/svg" id="Layer" viewBox="0 0 419.99 507.14"><defs><style>.cls-1{fill:#1d428a;stroke-width:0}</style></defs><path d="M215.41 20.37 200.05 0h-10.48v1.92l2.51 1.77v29.82h7.97V13.29l15.36 20.22h7.97V0h-7.97zM159.3 38.53l23.04-3.98-1.33-6.79-14.62 2.51-1.18-6.5 11.96-2.07-.44-2.95-.74-3.84-11.96 2.07-1.03-6.05 13.43-2.37.59-7.23-21.7 3.84-1.92.29-2.36.45.44 1.91 2.66 1.33zM121.07 51.08l11.81-4.28c10.93-3.99 15.21-12.84 11.81-22.15s-12.4-13.44-23.33-9.45l-10.48 3.84-1.33.44-2.66 1.03.74 1.92 3.4.89zm-1.18-27.9 4.28-1.48c4.28-1.62 10.19-.89 12.55 5.91 2.51 6.79-1.62 11.07-5.91 12.55l-4.28 1.48zM90.8 67.77l20.82-12.11-2.07-7.23-15.06 8.71L81.35 34.4l-5.46 3.25-1.92 1.03-1.77 1.04 1.03 1.77 2.51.14zM70.42 60.24c-6.35-7.23-16.83-8.42-25.1-1.33-8.27 7.23-8.56 17.72-2.21 24.95s16.83 8.56 25.1 1.33c8.27-7.09 8.42-17.72 2.21-24.95M49.6 78.25c-3.84-4.43-3.84-10.04.59-13.88 4.28-3.69 9.89-3.1 13.73 1.48 3.84 4.43 3.84 10.19-.44 13.88-4.43 3.84-10.04 2.95-13.88-1.48M36.32 88.58l-6.64 8.56-1.77 2.21-2.81 3.54 5.32 4.13 5.32-6.79c1.48 3.1 1.33 6.64-1.18 9.74-3.54 4.58-9.3 4.87-13.88 1.18s-5.76-9.15-2.07-13.73c.59-.74 1.18-1.33 1.92-1.92 1.03-.74 2.07-1.33 3.1-1.62l2.66-3.54 3.54-4.43.15-.15c-.15 0-.3 0-.59-.15-5.46-.44-11.37 1.48-15.8 6.5-.3.3-.59.59-.74.89-6.79 8.71-5.02 19.05 2.51 24.95s18.16 5.17 24.95-3.54c.3-.3.44-.59.74-.89 4.43-6.2 4.43-13.29 1.33-18.9-.3-.59-.59-1.03-1.03-1.48-1.03-1.33-2.21-2.51-3.54-3.69-.59-.3-1.03-.59-1.48-.89M263.83 25.39l2.81 2.66c2.51 2.36 3.69 3.4 3.1 5.17-.44 1.33-2.07 2.07-4.58 1.48-3.1-.89-6.05-3.4-8.27-6.79l-2.36 8.42c2.07 1.92 4.58 3.69 9.6 5.17 6.35 1.77 12.7-.44 14.47-6.64 1.48-4.87-1.18-8.27-4.87-11.66l-3.4-3.25c-1.62-1.48-1.92-2.51-1.62-3.54.44-1.33 2.07-1.92 4.13-1.33 2.21.59 5.17 2.36 7.97 5.61l2.21-7.68c-1.18-1.18-4.13-3.4-8.71-4.72-6.94-1.92-12.55 1.03-14.17 6.5-.89 3.84.15 7.23 3.69 10.63M291.74 51.53l7.68 3.69L310.64 31l9.59 4.58 2.96-6.35-26.88-12.55-2.95 6.35 9.6 4.43zM313.29 57.73l-2.07 2.95 5.76 3.99 2.36-2.66 3.69-1.92 5.17 3.54 5.17 3.54-.3 4.13-1.62 3.25 5.76 3.99 2.07-2.95 7.68-30.86-3.99-2.66-3.1-2.07-.89-.59-2.66-1.77-1.03 1.62.89 2.21-22.88 16.24Zm25.1-9.01-3.1 11.52-3.25-2.21-3.25-2.21 9.6-7.09ZM357.44 60.68l7.82 7.23L347.1 87.4l6.2 5.76 18.16-19.49 7.68 7.24 4.73-5.17-21.56-20.23zM381.95 104.53l7.38 9.6 5.61-4.29-7.53-9.59 4.87-3.69 8.27 10.77 6.64-2.95-13.73-17.57h.15l-2.66-3.39-1.62 1.18.15 3.39L366 106.3l14.47 18.31 5.46-4.28-9.15-11.67z" class="cls-1"/><path d="M407.93 244.35c0 111.17-90.21 201.38-201.38 201.38S5.02 355.67 5.02 244.35 95.23 42.96 206.55 42.96s201.38 90.21 201.38 201.38" class="cls-1"/><path d="M338.24 112.65c-35.14-35.14-81.94-54.63-131.7-54.63s-96.56 19.34-131.7 54.63c-35.14 35.14-54.63 81.94-54.63 131.7s19.34 96.56 54.63 131.7c35.14 35.14 81.94 54.63 131.7 54.63s96.56-19.34 131.7-54.63c35.14-35.14 54.63-81.94 54.63-131.7s-19.49-96.56-54.63-131.7m-256.45 7.09c33.22-33.22 77.51-51.67 124.61-51.67s91.39 18.31 124.61 51.67c33.22 33.22 51.67 77.51 51.67 124.61 0 25.25-5.32 49.75-15.35 72.2-21.41-7.23-42.37-15.35-63.04-24.51-2.66-1.18-5.46-2.36-8.12-3.69l-7.97-3.84-3.99-1.92-3.99-1.92-7.97-3.99c-2.66-1.33-5.32-2.81-7.82-4.13l-3.99-2.07c-1.33-.74-2.66-1.48-3.84-2.07l-7.82-4.28-7.68-4.43c-20.37-11.96-40.16-25.25-58.76-40.01-9.3-7.38-18.31-15.06-26.87-23.18-4.28-4.13-8.42-8.27-12.55-12.55-1.03-1.03-2.07-2.21-2.95-3.25-1.03-1.03-1.92-2.21-2.95-3.25s-1.92-2.21-2.81-3.4l-.15-.15c-.3-12.99-.59-20.67-.59-20.67l-8.86-2.07v11.81h-7.53v-12.4l-9.45 2.21v4.58l-4.43 2.36c.15 3.69.15 8.56.3 14.32-3.54 6.2-42.67 73.67-71.9 94.49-1.03-7.97-1.62-15.95-1.62-24.07.3-47.1 18.6-91.39 51.82-124.76m231.5 211.13-18.16.59-14.76-38.39 2.95 1.48 8.12 3.99c2.66 1.33 5.46 2.66 8.12 3.84.74.3 1.48.74 2.36 1.03zm-4.28-24.07c7.38 3.4 14.62 6.5 22.15 9.6l6.05 13.58-18.16.59zm-19.34 24.8-18.6.59-19.34-54.77c1.18.74 2.36 1.48 3.69 2.07l3.99 2.21c2.66 1.48 5.32 2.95 7.97 4.43l6.05 3.25 16.24 42.23Zm-24.07.89-16.54.59L224.86 261c3.69 2.36 7.38 4.72 11.22 7.09l7.68 4.72 1.03.59zm-22 .74-17.42.59-28.64-91.83c6.64 4.87 13.29 9.74 20.23 14.32l25.84 76.92Zm-22.88.74-16.68.59-34.11-114.72c2.36 2.07 4.87 4.13 7.23 6.2 4.28 3.54 8.71 7.09 13.14 10.48l30.41 97.44Zm-22.15.74-18.46.59-40.6-145.13c3.54 3.99 7.23 7.82 10.93 11.52 3.99 3.99 7.97 7.82 12.11 11.52l36.02 121.51Zm-23.77.74-15.95.59-22.29-85.19c-.74-22-1.33-42.37-1.77-58.61zm-21.41.74-13.88.44c-.89-20.23-1.62-41.63-2.36-62.16l16.24 61.71Zm195.33 12.25c-1.18 1.62-2.36 3.25-3.69 4.87l-204.93-3.99-.15-1.92 208.76 1.03Zm-5.91-18.6-4.72-10.48c7.82 3.1 15.65 6.2 23.47 9.01-.15.3-.3.59-.44.89l-18.31.59ZM124.76 200.94v10.78h-8.27v10.04h8.27v10.78h-8.27v10.04h8.27v20.37h-8.27v10.04h8.27v20.96h-8.27v10.04h8.27v32.92l-7.53.3V183.96h7.53v6.79h-8.27v10.04h8.27zM45.62 316.69l23.03-77.36c9.3-12.4 19.49-27.9 30.27-47.25L57.73 339.13a183 183 0 0 1-12.11-22.44m-3.1-7.53c-3.99-10.33-7.09-20.96-9.15-31.89 6.5-5.17 15.65-13.58 26.58-26.72l-17.42 58.61ZM103.79 194c0 15.5-.15 34.25-.59 54.33l-23.62 90.21-16.39.59zm-1.18 77.07c-.59 22.29-1.48 45.47-2.51 66.88l-15.21.44zm-31.3 86.37 27.76 1.03c-.59 8.56-1.18 16.68-1.77 24.21-5.32-4.28-10.48-8.71-15.21-13.58-3.99-3.84-7.53-7.68-10.78-11.66m135.24 63.19c-22 0-43.26-3.99-63.19-11.66-.89-12.11-1.62-26.43-2.36-42.23l-16.09-5.46v39.27c-2.51-1.33-5.17-2.81-7.53-4.28v-37.35l7.53.3v.3h8.27l14.91.59 185.44 6.5c-.74.74-1.48 1.48-2.21 2.36-33.51 33.37-77.81 51.67-124.76 51.67" style="stroke-width:0;fill:#fdb927"/><path d="m266.34 459.01-1.92-10.33-11.22 2.07-12.69 2.51-11.08 2.21 1.92 10.34 11.22-2.22 5.61 29.38-11.07 2.07 1.92 10.33 11.22-2.06 12.7-2.51 11.22-2.22-2.07-10.33-11.07 2.21-5.76-29.23zM331.16 446.61c6.2 13.14 1.33 28.64-13.73 35.58-15.06 7.09-29.97.74-36.02-12.4-6.2-13.14-1.33-28.49 13.73-35.58 14.91-6.94 29.82-.74 36.02 12.4m-11.81 5.61c-3.84-8.12-11.66-11.52-19.49-7.82-7.97 3.69-10.33 11.81-6.5 19.93 3.69 7.97 11.52 11.66 19.49 7.82 7.82-3.54 10.19-11.96 6.5-19.93M367.92 404.83c-6.35-7.38-16.24-6.79-23.77-.44l-14.17 12.11-2.21 1.92-2.66 2.21 1.92 2.21 4.28-.44 29.53 34.55 9.74-8.42-12.11-14.17 2.81-2.36 21.7 5.76 11.81-10.04-25.25-5.91c2.95-5.32 2.51-12.11-1.62-16.98m-11.37 18.01-4.58 3.84-7.53-8.71 4.72-4.13c2.66-2.36 6.05-2.81 8.56.15 2.66 2.95 1.77 6.35-1.18 8.86M415.61 402.91c-4.72 6.35-8.71 8.86-12.55 10.63l-10.63-8.12c5.91-1.33 11.07-4.28 14.03-8.12 2.36-3.1 2.21-6.05.44-7.23-2.21-1.62-4.43-.59-9.15 1.62l-5.46 2.66c-6.64 3.25-12.25 2.95-16.98-.74-6.79-5.17-7.97-14.76-1.48-23.47 4.28-5.61 9.15-8.71 11.37-9.74l9.74 7.38c-6.35 2.21-10.19 5.32-12.4 8.27-1.92 2.51-2.07 5.17-.3 6.5 1.33 1.03 2.95 1.03 6.05-.3l6.35-3.1c6.79-3.25 12.84-5.17 19.19-.44 7.97 6.05 7.83 16.24 1.77 24.21M217.18 471.71c.3-9.74-7.38-16.09-17.27-16.39l-18.6-.59-2.81-.15-3.54-.15-.15 2.95 3.4 2.66-1.62 45.47 12.84.44.59-18.6 3.69.15 12.11 19.05 15.5.59-14.62-21.26c6.05-2.51 10.19-7.68 10.48-14.17m-20.67 5.61-6.05-.15.44-11.52 6.35.15c3.54.15 6.5 2.07 6.35 5.91s-3.25 5.76-7.09 5.61M159.89 467.28c2.81-9.3-3.1-17.42-12.55-20.23l-17.86-5.32-2.81-.74-3.4-1.03-.89 2.81 2.66 3.4-12.84 43.55 12.25 3.69 5.32-17.72 3.54 1.03 6.94 21.41 14.91 4.43-8.86-24.36c6.35-.89 11.81-4.87 13.58-10.93m-21.26.15-5.76-1.77 3.25-11.07 6.05 1.77c3.4 1.03 5.76 3.54 4.58 7.23-1.18 3.84-4.43 4.87-8.12 3.84M99.36 426.24l-4.43-2.66-1.77-1.03-3.69-2.21-1.48 2.51 1.33 2.81-33.37 27.46-2.81 4.72 9.15 5.46 3.4-4.43 5.46-3.25 8.12 4.72 8.12 4.72-.15 6.35-2.21 5.17 9.15 5.46 2.81-4.72 8.86-47.54-6.5-3.54Zm-15.21 25.84-5.17-2.95 13.88-11.81-3.54 17.86zM68.95 406.6l-3.25-3.39-2.21 1.92.44 3.69-27.46 11.81 17.71-29.97-5.46-6.06-31.3 15.36 16.83-31.15-9.74-10.49-1.18-1.32-2.22 1.91.59 4.88L0 406.75l8.71 9.6 20.97-8.71-10.49 20.08 8.71 9.59 50.5-20.23z" class="cls-1"/></svg>