<svg xmlns="http://www.w3.org/2000/svg" id="Layer" viewBox="0 0 420.01 506.77"><defs><style>.cls-2,.cls-3,.cls-4{stroke-width:0}.cls-2{fill:#12173f}.cls-3{fill:#5d76a9}.cls-4{fill:#fb2}</style></defs><path d="M84.45 479.96c0-5.85-4.71-10.56-10.56-10.56H54.08v37.35h8.77v-11.69h8.12c2.6 0 4.71 2.11 4.71 4.71v6.82h8.77v-6.82c0-3.09-.97-5.85-2.76-8.12 1.95-1.95 3.09-4.55 3.09-7.63v-4.06h-.32Zm-10.56-1.95c.97 0 1.95.81 1.95 1.95v4.22c0 1.14-.97 2.27-2.27 2.27H62.69v-8.28H73.9v-.16ZM280.49 506.76h-31.02V469.4h8.77v28.59h22.25zM366.73 478.01v-8.61h-31.02v37.36h31.02v-8.77h-22.25v-6.01h19.16v-8.77h-19.16v-5.2zM170.86 506.76h-33.62l19.33-28.75h-17.22v-8.61h33.46l-19.17 28.59h17.22zM224.94 506.76h-33.62l19.17-28.75h-17.22v-8.61h33.62l-19.33 28.59h17.38zM302.09 469.4h8.77v37.35h-8.77zM107.68 469.4h8.77v37.35h-8.77z" class="cls-2"/><path d="M107.68 469.4h8.77v37.35h-8.77zM255.64 387.55h-31.83v68.38h15.75v-22.09h16.08c10.56 0 19.16-8.61 19.16-19.16v-8.12c0-10.39-8.61-19-19.16-19Zm3.41 27.12c0 1.95-1.62 3.41-3.41 3.41h-16.08v-14.94h16.08c1.95 0 3.41 1.62 3.41 3.41z" class="cls-2"/><path d="M232.25 455.92h-1.3v-61.23h24.52c6.66 0 12.02 5.36 12.02 12.02v8.12c0 6.66-5.36 12.02-12.02 12.02h-23.23v29.07Zm0-30.53h23.23c5.85 0 10.72-4.71 10.72-10.72v-8.12c0-5.85-4.71-10.72-10.72-10.72h-23.23z" class="cls-3"/><path d="M133.83 403.14v-15.59H81.86v68.37h51.97v-15.75H97.61v-10.56h30.53v-15.75H97.61v-10.72z" class="cls-2"/><path d="M133.83 395.99v-1.3H89.16v54.08h44.67v-1.29H90.46V422.3h37.68V421H90.46v-25.01z" class="cls-3"/><path d="M196.19 387.55h-54.25v68.38h15.75v-52.62h13.16v52.62h15.75v-52.62h9.74c1.95 0 3.41 1.62 3.41 3.41v49.21h15.75v-49.21c-.16-10.56-8.77-19.16-19.33-19.16" class="cls-2"/><path d="M196.19 394.69h-47.1v61.23h1.3v-59.77H178v59.93h1.3v-59.93h16.89c5.85 0 10.72 4.71 10.72 10.72v49.21h1.3v-49.21c0-6.82-5.52-12.18-12.02-12.18" class="cls-3"/><path d="M54.25 387.55H0v68.38h15.75v-52.62h13.16v52.62h15.75v-52.62h9.74c1.95 0 3.41 1.62 3.41 3.41v49.21h15.75v-49.21c-.16-10.56-8.77-19.16-19.33-19.16" class="cls-2"/><path d="M54.25 394.69H7.15v61.23h1.3v-59.77h27.61v59.93h1.3v-59.93h16.89c5.85 0 10.72 4.71 10.72 10.72v49.21h1.3v-49.21c0-6.82-5.36-12.18-12.02-12.18" class="cls-3"/><path d="M343.34 387.55h15.75v68.38h-15.75z" class="cls-2"/><path d="M350.49 387.55h1.3v68.38h-1.3z" class="cls-3"/><path d="M317.35 387.55v26.31h-19.48v-26.31h-15.76v68.37h15.76v-26.31h19.48v26.31h15.76v-68.37z" class="cls-2"/><path d="M324.5 387.55V421h-33.94v-33.45h-1.3v68.37h1.3V422.3h33.94v33.62h1.46v-68.37z" class="cls-3"/><path d="M30.53 506.76H10.56C4.71 506.76 0 502.05 0 496.2v-16.08c0-5.85 4.71-10.56 10.56-10.56h9.26c5.85 0 10.56 4.71 10.56 10.56v1.79h-8.77v-1.79c0-.97-.81-1.95-1.95-1.95H10.4c-.97 0-1.95.81-1.95 1.95v16.08c0 .97.81 1.95 1.95 1.95h11.21v-3.41h-5.2v-8.77h13.81v20.79h.32Z" class="cls-2"/><path d="M30.53 506.76H10.56C4.71 506.76 0 502.05 0 496.2v-16.08c0-5.85 4.71-10.56 10.56-10.56h9.26c5.85 0 10.56 4.71 10.56 10.56v1.79h-8.77v-1.79c0-.97-.81-1.95-1.95-1.95H10.4c-.97 0-1.95.81-1.95 1.95v16.08c0 .97.81 1.95 1.95 1.95h11.21v-3.41h-5.2v-8.77h13.81v20.79h.32ZM409.12 506.76h-9.26c-5.85 0-10.56-4.71-10.56-10.56v-1.3h8.77v1.3c0 .97.81 1.95 1.95 1.95h9.26c.97 0 1.95-.81 1.95-1.95v-1.62l-16.08-4.22c-3.41-.97-5.68-4.06-5.68-7.63v-2.27c0-6.01 4.87-10.88 10.88-10.88h9.1c5.85 0 10.56 4.71 10.56 10.56v1.79h-8.77v-1.79c0-.97-.81-1.95-1.95-1.95h-9.1c-1.14 0-2.11.97-2.11 2.11v1.79l16.08 4.22c3.41.97 5.68 4.06 5.68 7.63v2.11c0 6.01-4.87 10.72-10.72 10.72M400.67 455.76h-32.32V434h15.75v6.01h16.57c1.95 0 3.57-1.62 3.57-3.57v-3.09l-25.66-7.96c-6.01-1.95-10.23-7.47-10.23-13.81v-4.87c0-10.72 8.61-19.33 19.33-19.33H420v22.58h-15.75v-6.82h-16.57c-1.95 0-3.57 1.62-3.57 3.57v3.9l25.5 7.8c6.17 1.95 10.23 7.47 10.23 13.97v4.06c.16 10.72-8.45 19.33-19.16 19.33" class="cls-2"/><path d="M400.67 448.61h-25.01v-14.62h1.3v13.32h23.71c6.01 0 10.72-4.87 10.72-10.72v-4.06c0-2.6-1.79-5.03-4.22-5.85l-26.47-8.12c-3.09-.97-5.03-3.74-5.03-6.82v-4.87c0-6.66 5.36-12.18 12.18-12.18h25.01v15.43h-1.3v-14.13h-23.71c-6.01 0-10.72 4.87-10.72 10.72v4.87c0 2.6 1.62 4.87 4.22 5.68l26.47 8.12c3.09.97 5.2 3.74 5.2 6.98v4.06c-.16 6.82-5.68 12.18-12.34 12.18" class="cls-3"/><path d="M376.15 84.16c4.71-8.93 6.98-17.87 6.98-26.47 0-19.49-10.88-36.87-26.15-47.26-21.28-14.45-53.11-16.4-75.68 10.56-32.97-4.55-60.58 4.55-71.14 8.93-10.56-4.39-38.17-13.32-71.14-8.93C116.45-5.98 84.45-4.03 63.34 10.42 48.07 20.81 37.19 38.19 37.19 57.68c0 8.61 2.27 17.54 6.98 26.47-17.05 24.52-28.75 53.76-28.75 83.48 0 35.73 15.27 54.08 20.95 62.04l4.55-4.55c16.24 41.09 43.85 63.34 77.31 83.48 0 0 .81-4.06 1.46-7.63 36.06 31.18 53.11 23.55 90.46 65.78 37.19-42.06 54.9-34.92 90.46-65.78.65 3.57 1.46 7.63 1.46 7.63 14.94-8.93 56.84-31.51 77.31-83.48l4.55 4.55c3.57-4.87 20.95-24.36 20.95-62.04.16-29.72-11.69-58.79-28.75-83.48" style="fill:#707271;stroke-width:0"/><path d="M365.92 84.81c34.27-52.62-43.53-107.52-81.21-54.41-38.17-6.82-70.16 7.15-74.55 9.1-4.22-1.95-36.38-15.92-74.55-9.1C97.93-22.71 20.13 32.19 54.4 84.81c-39.14 53.76-35.08 106.71-17.05 131.55l7.47-7.47s10.72 51.81 66.91 85.75l1.95-11.21c34.59 37.03 66.26 36.22 96.31 70 29.88-33.78 61.55-32.97 96.31-70l1.95 11.21c56.36-33.94 66.91-85.75 66.91-85.75l7.47 7.47c18.52-25.01 22.41-77.96-16.73-131.55" class="cls-2"/><path d="M210.49 281.65s-27.12.49-31.02 2.92c0 0-4.71 8.12 31.02 7.96 33.94-.16 28.91-6.33 29.23-7.31 0 0-11.53-3.57-29.23-3.57M187.1 250.31s4.22-12.18 8.77-8.28c6.17 5.36 14.45 16.24 14.45 17.38v14.62l-9.91.49c-5.68.16-23.87 4.55-23.87 4.55-25.17-62.2-11.21-109.47-4.55-126.19-24.85 5.36-28.91-24.52-28.91-24.52 2.6-.49 6.33.65 10.72 2.6 6.66 3.25 14.45 8.61 20.79 13.48 1.79 1.46 3.57 2.76 5.03 4.06 16.89 14.29 30.7 11.37 30.7 11.37v60.9c-.16 0-49.54-3.9-23.23 29.56M233.39 250.31c31.51-32-19.81-30.05-23.06-29.56 5.36.32 45.15.49 23.06 29.56" class="cls-3"/><path d="M254.34 153.67c28.26 76.33-7.63 125.38-7.8 125.71 22.25-58.31 7.96-106.87-1.79-124.9-5.03.49-11.04.16-11.04.16s7.47-4.71 12.34-9.1c.32-.32.65-.65 1.14-.97 4.06-3.57 11.86-9.91 21.11-13.64 3.41-1.3 7.15-2.27 10.88-2.76.16 0-2.6 25.17-24.85 25.5" class="cls-3"/><path d="M299.16 54.92s11.53-28.91 46.94-21.93c0 0-32.48-21.44-55.06 17.22 0 0-32.48-15.27-80.88 5.68 0 0-45.48-15.92-80.07-6.98 0 0-20.14-34.92-48.56-20.63-28.42 14.45-13.64 47.75-8.61 56.36 0 0-47.1 47.91-29.4 107.19l9.42-11.86s13.48 64.48 48.4 84.94l2.11-15.92s36.38 43.85 79.26 62.53c4.06 1.95 26.8 13.16 27.45 18.68v-30.7s-29.72 2.44-37.52-11.21c-5.36-9.26-39.47-70.16-22.58-133.99 0 0-16.4-2.44-19.49-30.21 0 0-12.18-6.01-27.45-4.71 0 0 27.29-8.61 52.78 1.3 25.5 9.91 32.32 35.08 49.7 23.87l4.71-70.81 5.2 70.81c17.22 11.04 24.2-13.97 49.7-23.87 25.5-9.91 52.78-1.3 52.78-1.3s-10.88-7.63-28.42-11.21c-14.62-2.92-36.06 6.5-36.06 6.5s2.92-20.14 12.67-30.86c8.28-8.77 27.12-10.88 32.97-28.91ZM79.09 79.44c-.97-9.58 11.21-19.16 11.21-19.16-5.03-5.2-13.81-.65-13.81-.65 7.96-15.59 25.82-7.96 25.82-7.96-6.82-8.28-21.11-7.8-21.11-7.8 17.7-17.54 39.14 9.26 39.14 9.26-19.16 4.22-41.25 26.31-41.25 26.31" class="cls-3"/><path d="M174.43 144.25c-2.76-.81-7.31 1.95-9.74 6.82-8.45-2.44-11.37-11.53-11.04-20.3 6.66 3.25 14.62 8.61 20.79 13.48M257.59 151.23c-2.6-5.2-7.47-7.96-10.23-6.66 4.06-3.57 11.86-9.91 21.11-13.64.49 8.77-2.6 17.87-10.88 20.3" class="cls-4"/></svg>