<svg xmlns="http://www.w3.org/2000/svg" id="Layer" viewBox="0 0 420 420"><defs><style>.cls-1,.cls-2{fill:#1d428a;stroke-width:0}.cls-2{fill:#fff}</style></defs><path d="M420 210c0 116.06-93.94 210-210 210S0 326.06 0 210 93.94 0 210 0s210 93.94 210 210" class="cls-2"/><path d="M412.3 210c0 111.72-90.58 202.3-202.3 202.3S7.7 321.58 7.7 210 98.28 7.7 210 7.7 412.3 98.28 412.3 210" class="cls-1"/><path d="m38.92 244.44 4.2 13.16h14L45.78 266l4.2 12.88-11.06-7.98-11.06 7.98 4.2-12.88-11.48-8.4h14.14zM381.22 244.44l4.06 13.16h14.14l-11.48 8.4 4.2 12.88-10.92-7.98-11.2 7.98 4.2-12.88-11.34-8.4h14zM88.06 315.14l4.2 13.16h14l-11.34 8.4 4.06 12.88-10.92-7.98L77 349.58l4.2-12.88-11.48-8.4h14zM336.7 315.14l4.06 13.16h14l-11.34 8.4 4.06 12.88-10.78-7.98-11.2 7.98 4.2-12.88-11.34-8.4h13.86zM164.64 361.2l4.2 13.16h14l-11.34 8.4 4.2 12.88-11.06-7.84-10.92 7.84 4.06-13.02-11.48-8.26h14.14zM257.88 361.2l4.06 13.16h14l-11.2 8.4 4.06 12.88-10.92-7.84-11.06 7.84 4.2-13.02-11.48-8.26h14z" class="cls-2"/><path d="M361.62 210.98c0 83.72-67.9 151.62-151.62 151.62S58.38 294.7 58.38 210.98 126.28 59.36 210 59.36c83.72-.14 151.62 67.76 151.62 151.62" class="cls-2"/><path d="M67.34 240.8c7.98 38.22 30.38 70.84 62.86 92.12s71.4 28.7 109.62 20.72c38.08-7.98 71.26-30.1 92.12-62.86 20.86-32.62 28.28-71.54 20.72-109.62-7.56-38.22-30.24-70.7-62.86-92.12s-71.54-28.7-109.48-20.72c-38.08 7.98-70.84 30.38-92.26 62.86-21.28 32.62-28.7 71.54-20.72 109.62" class="cls-1"/><path d="M259.56 97.44c.56 5.6-2.24 11.2-7.84 16.52C224.42 93.8 198.38 84 172.9 84c-5.46 0-10.92.42-15.96 1.26 8.12-3.36 16.52-6.02 25.2-7.84 22.82-4.76 45.92-3.64 67.62 3.08 4.62 4.2 9.24 10.22 9.8 16.94M231.14 332.78c28.7-26.32 42-82.88 49.98-116.62l1.26-5.32c4.06-17.22 11.34-29.96 19.04-37.8 28.84 44.8 24.92 91 17.64 119.98-20.02 26.46-48.44 44.66-81.2 51.52-9.38 1.96-18.76 2.94-28 2.94 6.86-3.22 14-7.98 21.28-14.7M283.22 140.98c11.62-9.8 21-17.22 27.72-21.98 14.28 15.82 24.78 34.58 30.8 55.44-5.32-7.14-12.32-14.14-19.74-15.68-6.44-1.26-13.02.56-19.18 4.9-5.6-7.56-12.04-15.26-19.6-22.68M76.02 204.82c13.3-35.56 61.88-50.26 80.22-55.58l.7-.28c6.02-1.82 14.56-3.22 24.64-5.04 23.52-3.92 52.64-8.96 70.14-21.98 7.14 5.32 14.42 11.62 21.84 18.76-39.76 33.74-101.22 90.44-166.74 160.16-15.26-17.36-25.9-38.64-30.8-62.02-1.96-9.24-2.94-18.62-2.94-27.86 1.82-3.5 2.94-6.16 2.94-6.16" class="cls-2"/><path d="M278.6 136.5c-7.42-6.86-14.7-13.16-21.84-18.76 6.72-6.58 9.8-13.44 9.1-20.86-.42-4.48-2.24-8.68-4.48-12.46 8.12 3.36 15.82 7.42 23.38 12.32 7.98 5.32 15.26 11.2 21.7 17.5-6.86 5.18-16.24 12.6-27.86 22.26M246.68 118.02c-16.52 11.34-43.82 15.96-65.94 19.74-10.22 1.82-18.9 3.22-25.34 5.18l-.7.28c-17.5 5.32-61.74 18.48-79.94 50.26 2.52-20.3 9.8-39.76 21.28-57.26 9.8-14.7 22.54-28.42 36.68-38.22 31.92-13.72 68.18-12.88 113.96 20.02M320.6 164.92c9.52 1.96 19.88 17.92 24.78 27.3 4.2 29.96-1.54 60.06-16.66 86.24.7-4.62 1.26-9.52 1.68-14.56 1.96-25.62-1.54-60.48-24.08-94.92 4.9-3.5 9.94-4.9 14.28-4.06M278.46 145.04q11.34 11.13 19.32 22.68c-9.38 8.96-17.22 23.52-21.56 41.58l-1.26 5.32c-7.84 33.04-20.86 88.48-48.16 113.4-11.2 10.36-22.26 15.68-32.2 18.62-21-2.24-41.3-9.66-59.36-21.56-8.82-5.74-16.8-12.46-23.8-19.74 66.22-70.28 127.82-126.98 167.02-160.3" class="cls-2"/><path d="m247.66 251.44 3.78-.98c2.24-.7 3.78-1.4 3.78-4.62 0-2.66-.7-7.56-3.92-7.56-3.5 0-3.5 5.74-3.5 8.96zM203.28 249.48c0-11.62-.42-21.7-8.26-21.7-6.44 0-7.56 10.08-7.56 21.7s-.42 21.7 7.56 21.7c6.72 0 8.26-10.08 8.26-21.7" class="cls-2"/><path d="m247.66 251.44 3.78-.98c2.24-.7 3.78-1.4 3.78-4.62 0-2.66-.7-7.56-3.92-7.56-3.5 0-3.5 5.74-3.5 8.96zM186.48 222.74c3.92-5.88 11.2-8.68 18.2-8.68 15.96 0 25.9 13.86 25.9 32.34 0 21.98-14.98 35.14-33.46 35.14-28.42 0-38.64-22.96-38.64-49.42 0-30.66 13.3-55.86 46.34-55.86 12.88 0 23.38 8.26 23.38 21 0 8.26-6.44 12.32-12.46 12.32-8.96 0-11.76-7.42-13.02-14-.56-2.8.56-8.96-4.06-8.96-9.66 0-11.2 18.76-11.48 25.76z" class="cls-2"/><path d="M203.28 249.48c0-11.62-.42-21.7-8.26-21.7-6.44 0-7.56 10.08-7.56 21.7s-.42 21.7 7.56 21.7c6.72 0 8.26-10.08 8.26-21.7M31.22 177.52c5.32.7 7.56 4.48 6.72 11.48l-.7 5.18 2.94.42c3.78.42 5.18.42 5.46-2.66l3.5.42-1.68 13.86-3.5-.42c.28-3.08-.98-3.5-4.76-3.78l-10.78-1.26c-3.78-.42-5.18-.42-5.46 2.66l-3.5-.42 1.82-15.26c1.12-7.56 4.48-10.92 9.94-10.22m2.94 14.7c.56-4.62-.7-7-4.06-7.42-2.8-.42-4.9 1.4-5.32 4.9-.28 2.38.56 2.94 3.22 3.22l6.02.7c0-.56 0-.84.14-1.4M51.66 162.26c1.12-2.8-.14-3.64-3.64-5.04l-9.94-4.2c-3.5-1.4-4.9-1.82-6.02.98l-3.22-1.26L34.16 140l3.08 1.26c-1.12 2.8.14 3.64 3.64 5.04l2.52.98 3.92-9.66-2.52-.98c-3.5-1.4-4.9-1.82-6.02.98l-3.08-1.26 5.32-12.74 3.22 1.26c-1.12 2.8.14 3.64 3.64 5.04l9.94 4.2c3.5 1.4 4.9 1.82 6.02-.98l3.22 1.26-5.32 12.74-3.08-1.26c1.12-2.8-.14-3.64-3.64-5.04l-4.34-1.82-3.92 9.66 4.34 1.82c3.5 1.4 4.9 1.82 6.02-.98l3.08 1.26-5.32 12.74zM65.1 93.94c-1.82 2.38-.7 3.5 2.24 5.74l8.68 6.58c2.94 2.24 4.2 2.8 6.16.56l2.8 2.1-8.26 11.2-2.8-2.1c1.82-2.38.7-3.5-2.24-5.74L63 105.7c-2.94-2.24-4.2-2.94-6.16-.56l-2.8-2.1 8.26-11.2zM96.32 95.62l-2.24-2.66c2.24-2.1 1.54-3.22-.84-6.02l-6.86-8.26c-2.38-2.8-3.5-3.78-5.88-1.96l-2.24-2.66L88.9 65.1l2.24 2.66c-2.24 2.1-1.54 3.22.7 6.16l7.84 9.24c1.82 2.24 2.52 2.38 4.9.7 2.94-2.38 4.2-6.86 3.08-12.46l3.08-.7 3.08 10.22zM129.36 70.14l-1.4-3.22c2.52-1.68 2.38-3.36 2.38-6.44l-.7-21.56 5.74-2.66 15.96 15.68c1.82 1.82 2.8 2.66 5.32 1.82l1.4 3.22-12.74 5.74-1.4-3.08c.14 0 .14-.14.28-.14 1.82-.7 2.38-1.54 1.96-2.66-.14-.42-.42-.7-.7-.98l-2.94-2.94-8.26 3.78.56 3.92c0 .28.14.7.28.84.56 1.12 1.82 1.26 3.78.56l1.4 3.08zm10.36-19.6-6.02-6.44.56 8.96zM172.2 49.42c2.94-.56 3.08-1.96 2.52-5.6l-1.54-10.78c-.56-3.78-.98-5.04-3.92-4.76l-.56-3.5 14.14-2.1c10.78-1.54 17.22 2.66 18.48 11.62S197.54 49 186.9 50.54l-14.14 2.1zm10.08-5.04c.42 2.8.84 3.5 3.78 3.08 5.6-.7 8.54-5.18 7.56-11.9-.84-6.72-5.04-10.08-10.64-9.24-2.94.42-3.22 1.26-2.8 3.92zM221.2 45.36c3.08.42 3.5-.98 3.92-4.76l1.54-10.78c.56-3.78.56-5.18-2.52-5.6l.56-3.5 23.24 3.36 2.52 8.96-2.8.98c-2.24-4.62-5.46-7.28-9.8-7.98-2.8-.42-3.22.42-3.64 3.08l-.7 3.92 1.26.28c2.94.42 3.78-.42 4.48-3.78l2.94.42-1.82 12.6-2.94-.42c.14-3.36-.84-4.9-3.22-5.32l-1.26-.28-.84 6.58c-.42 2.66-.14 3.64 2.66 3.92 4.06.7 8.96-1.4 12.74-5.88l2.38 1.82-5.6 8.96-23.66-3.5zM264.74 57.68l1.4-3.22c2.8 1.12 3.64 0 5.18-3.5l4.34-9.8c1.54-3.5 1.96-4.76-.84-6.02l1.4-3.22 12.74 5.46-1.4 3.22c-2.8-1.12-3.64 0-5.18 3.5l-4.9 11.06c-1.12 2.52-.98 3.5 1.54 4.62 3.5 1.54 8.12.7 12.46-2.66l1.96 2.38-7.84 7.28zM336.14 78.26c-3.5 4.2-7.84 4.06-13.3-.42l-3.92-3.22-1.82 2.24c-2.24 2.94-3.08 4.06-.7 6.16l-2.24 2.66L303.24 77l2.24-2.66c2.38 1.82 3.5.84 5.88-1.96l6.72-8.4c2.24-2.94 3.08-4.06.7-6.16l2.24-2.66 11.9 9.66c5.6 4.48 6.72 9.1 3.22 13.44M322 72.8c3.64 2.94 6.44 3.08 8.4.56 1.82-2.24 1.4-4.9-1.26-7-1.96-1.54-2.8-.98-4.48.98l-3.78 4.76c.56.14.84.42 1.12.7M338.24 103.46c1.82 2.38 3.08 1.96 6.16-.28l8.82-6.3c3.08-2.24 4.06-3.22 2.38-5.6l2.8-1.96 7.98 11.34-2.8 1.96c-1.82-2.38-3.08-1.96-6.16.28l-2.24 1.68 6.02 8.54 2.24-1.68c3.08-2.24 4.06-3.22 2.38-5.6l2.8-1.96 7.98 11.34-2.8 1.96c-1.82-2.38-3.08-1.96-6.16.28l-8.82 6.3c-3.08 2.24-4.06 3.22-2.38 5.6l-2.8 1.96-7.98-11.34 2.8-1.96c1.82 2.38 3.08 1.96 6.16-.28l3.78-2.66-6.02-8.54-3.78 2.66c-3.08 2.24-4.06 3.22-2.38 5.6l-2.8 1.96-7.98-11.34zM388.78 151.2c-1.12-2.8-2.52-2.52-6.02-1.12l-10.08 3.78c-3.5 1.4-4.76 2.1-3.78 5.04l-3.22 1.26-5.04-12.88 3.22-1.26c1.12 2.8 2.52 2.52 6.02 1.12l10.08-3.78c3.5-1.4 4.76-2.1 3.78-4.9l3.22-1.26 5.04 12.88zM370.72 175.28l3.5-.56c.7 2.94 2.52 3.36 5.32 4.2l20.72 5.6.7 6.3-19.74 10.78c-2.24 1.12-3.36 1.96-3.36 4.48l-3.5.56-1.82-13.86 3.36-.42v.28c.28 1.96.7 2.8 1.96 2.52.42 0 .7-.14 1.12-.42l3.78-1.96-1.12-8.96-3.92-.7c-.28 0-.7-.14-.84 0-1.26.14-1.82 1.26-1.54 3.5l-3.36.42zm15.68 15.82 7.98-3.78-8.68-2.24zM295.12 228.76c-3.22 0-5.46 1.4-7.28 3.36-.14-.42-.42-.84-.7-1.26l-1.54-2.94-21.7 6.44v11.9h4.62c.14.42.56 1.4.56 5.18v13.86l-3.92.56v13.02h30.24v-13.02l-3.92-.56v-4.06c0-2.24.56-6.72 1.12-9.38 1.12.42 2.38.7 3.92.7 5.32 0 9.24-4.9 9.24-11.76 0-7.42-4.2-12.04-10.64-12.04" class="cls-2"/><path d="M333.06 242.62c-.28-.98-.42-1.4-.42-1.96 0-3.64-1.4-11.9-14.56-11.9-7.28 0-21.7 5.6-21.7 18.76 0 4.9 1.4 8.26 3.5 11.06-2.8 1.68-4.62 5.04-4.62 8.96 0 4.76 2.24 12.6 18.2 12.6 13.58 0 21.28-7 21.28-19.18 0-11.9-.98-15.68-1.68-18.34M173.46 172.48c-.7-.84-2.1-1.54-3.36-1.54-2.1 0-3.64 1.26-5.46 3.36-6.44 6.72-15.12 10.36-25.2 10.36-13.16 0-27.02-6.02-38.08-16.66-.84-.84-2.1-1.26-3.22-1.26-5.32 0-6.72 8.54-6.72 8.68v43.26l3.5.56c13.02 1.96 24.36 1.54 34.58-1.26-11.06 9.8-35.98 36.82-35.56 62.58 0 4.76 2.94 5.32 4.2 5.32 1.54 0 2.52-.84 3.36-1.4.14-.14.42-.42.7-.56 3.64-2.66 9.38-4.06 15.82-4.06 5.32 0 10.78.98 14.7 2.94.7.42 1.68.7 2.66.7 1.26 0 2.38-.56 3.22-1.4 1.4-1.54 1.26-3.5 1.12-4.76-1.82-18.76 2.24-39.06 10.22-50.82l1.12-1.82c6.72-9.94 20.86-30.8 23.38-48.02.28-1.68.14-3.22-.98-4.2M273.84 255.08l-.28-3.36c-.14-2.24-.56-4.2-.84-6.16l-.14-3.78-.7.98c-3.22-8.82-10.64-14.28-20.02-14.28-14 0-23.8 11.06-23.8 26.88 0 12.18 7.14 24.5 23.1 24.5 9.1 0 17.36-4.62 21.7-11.9l.7-.98-.56-11.76zm-16.8 7.56c-1.54 0-2.52-.98-3.22-2.24l7.84-2.1c-2.38 2.8-4.06 4.2-4.62 4.34" class="cls-2"/><path d="M221.9 216.72c-.7-1.12-1.68-2.38-2.38-3.5 6.86-1.4 12.88-6.72 12.88-15.82 0-14.28-11.76-25.06-27.58-25.06-31.5 0-50.26 22.4-50.26 59.78 0 33.88 15.68 53.34 42.7 53.34 21.98 0 37.38-16.1 37.38-39.2 0-11.34-7.7-22.12-12.74-29.54" class="cls-2"/><path d="M257.04 266.7c-4.9 0-7.84-4.48-8.26-8.96l21-5.6c-.7-10.22-6.58-19.32-17.64-19.32-11.9 0-19.74 9.24-19.74 22.96 0 10.64 6.16 20.3 18.9 20.3 7.28 0 14.42-3.5 18.34-9.94l-4.06-5.04c-2.24 3.22-4.48 5.6-8.54 5.6m-9.24-19.32c0-3.22 0-8.96 3.5-8.96 3.22 0 3.92 4.9 3.92 7.56 0 3.22-1.54 3.92-3.78 4.62l-3.78.98z" class="cls-1"/><path d="M291.62 274.82H269.5v-5.6l3.92-.56V251.3c0-6.16-.7-9.24-5.32-9.24v-4.9l15.82-4.62c1.82 3.5 2.24 7.56 2.52 11.48h.14c1.54-4.76 3.64-11.34 8.68-11.34 4.48 0 6.58 3.5 6.58 7.7s-1.96 7.84-5.18 7.84c-2.24 0-4.2-.84-5.32-1.26-2.8-.98-3.78 11.48-3.78 14.14v7.56l3.92.56z" class="cls-1"/><path d="M328.72 240.8c0 3.5-2.94 5.18-6.16 5.18-3.78 0-6.58-3.08-7.14-6.72-1.68 0-2.8.84-2.8 3.64 0 6.44 18.2 1.82 18.2 18.06 0 12.18-8.82 15.26-17.22 15.26-5.18 0-14.28-.7-14.28-8.54 0-3.64 1.96-6.3 5.46-6.3 5.46 0 6.44 5.04 7.42 8.54.28.84.98 1.12 1.82 1.12 2.94 0 5.04-1.12 5.04-3.08 0-7.28-18.62-4.48-18.62-20.3 0-10.08 11.9-14.56 17.64-14.56 6.58-.14 10.64 1.96 10.64 7.7M204.82 213.92c-7 0-14.28 2.8-18.06 8.68h-.28.14l.7-10.22c.42-6.86 1.96-25.76 11.48-25.76 4.62 0 3.64 6.16 4.06 8.96 1.26 6.58 4.06 14 13.02 14 6.02 0 12.46-3.92 12.46-12.32 0-12.74-10.64-21-23.38-21-33.04 0-46.34 25.2-46.34 55.86 0 26.46 10.22 49.42 38.64 49.42 18.48 0 33.46-13.02 33.46-35.14 0-18.62-9.8-32.48-25.9-32.48m-9.8 57.26c-7.98 0-7.56-10.08-7.56-21.7s1.12-21.7 7.56-21.7c7.98 0 8.26 10.08 8.26 21.7s-1.54 21.7-8.26 21.7" class="cls-1"/><path d="M95.62 175.98v39.34c21.98 3.22 48.44 1.12 66.92-26.18.7-1.12 1.26-.42.7.7-5.32 10.64-17.5 20.3-28.14 28.7-10.22 8.12-37.66 36.82-37.24 62.02 0 1.96.14 1.4 1.82.14 8.26-6.16 24.64-6.44 34.58-1.54 1.4.7 1.54.56 1.26-1.4-1.96-19.6 2.38-41.02 10.92-53.34 5.74-8.54 21.42-30.8 24.08-48.16q.42-2.73-2.94.84c-17.64 18.76-49.56 18.2-70.14-1.54-1.12-1.4-1.68-.84-1.82.42" style="stroke-width:0;fill:#c8102e"/><circle cx="133.84" cy="152.18" r="37.8" class="cls-2"/><path d="m133.84 115.92 1.26 3.92h4.34l-3.64 2.52 1.4 3.92-3.36-2.38-3.36 2.38 1.26-3.92-3.5-2.52h4.34zM159.04 130.48l1.26 3.92h4.2l-3.36 2.66 1.26 3.92-3.36-2.38-3.5 2.38 1.4-3.92-3.5-2.66h4.34zM148.12 119.28l1.26 3.92h4.34l-3.36 2.52 1.26 4.06-3.5-2.52-3.36 2.52 1.4-4.06-3.5-2.52h4.2zM163.1 144.34l1.26 3.92h4.34l-3.5 2.52 1.26 4.06-3.36-2.52-3.36 2.52 1.4-4.06-3.64-2.52h4.2zM161.28 158.9l1.4 4.06h4.2l-3.5 2.66 1.26 3.78-3.36-2.38-3.22 2.38 1.12-3.92-3.5-2.52h4.34zM153.3 170.66l1.12 4.06h4.34l-3.5 2.52 1.4 3.78-3.36-2.38-3.5 2.38 1.26-3.78-3.36-2.52h4.34zM140.42 177.24l1.4 3.92h4.34l-3.5 2.66 1.26 3.92-3.5-2.52-3.22 2.52 1.26-3.92-3.5-2.66h4.2zM108.22 129.22l-1.26 3.92h-4.2l3.36 2.66-1.26 3.92 3.36-2.52 3.5 2.52-1.4-3.92 3.5-2.66h-4.34zM118.86 119.28l-1.26 3.92h-4.34l3.36 2.52-1.26 4.06 3.5-2.52 3.36 2.52-1.4-4.06 3.5-2.52h-4.2zM103.32 142.52l-1.26 3.92h-4.2l3.36 2.66-1.26 3.92 3.36-2.38 3.36 2.38-1.12-3.92 3.36-2.66h-4.34zM104.58 157.08l-1.26 4.2h-4.2l3.5 2.38-1.4 3.92 3.36-2.38 3.5 2.38-1.26-3.92 3.5-2.38h-4.48zM112.7 169.12l-1.12 4.06h-4.34l3.36 2.52-1.26 3.78 3.36-2.38 3.5 2.38-1.4-3.78 3.5-2.52h-4.2zM125.44 176.68l-1.26 4.06h-4.34l3.5 2.52-1.12 3.92 3.08-2.38 3.5 2.38-1.26-3.92 3.5-2.52h-4.34z" class="cls-1"/></svg>