<svg xmlns="http://www.w3.org/2000/svg" id="Layer" viewBox="0 0 420 426.21"><defs><style>.cls-1,.cls-3,.cls-4,.cls-5{stroke-width:0}.cls-3{fill:#bec0c2}.cls-4{fill:#fff}.cls-5{fill:#63727a}</style></defs><path d="M419.26 1.28c-.64-.9-1.67-1.28-2.69-1.28H153.2c-31.41.13-50.65 13.59-57.32 40.26L.1 421.98c-.26 1.03 0 2.18.64 2.95.64.9 1.67 1.28 2.69 1.28h286.84c16.41 0 32.95-13.08 36.67-29.11L419.9 4.36c.26-1.15 0-2.18-.64-3.08" class="cls-5"/><path d="M3.43 422.75h286.84c14.87 0 29.88-11.92 33.21-26.54L416.44 3.46H153.2c-24.36 0-46.67 8.08-53.98 37.7z" class="cls-1"/><path d="M311.42 270.68H58.7l55.52-220.03c7.05-28.47 24.75-34.24 48.98-34.24h231.96l-53.08 229.78c-3.08 13.59-16.93 24.49-30.65 24.49ZM62.67 267.6h248.75c12.44 0 24.88-9.87 27.7-22.05l52.32-226.06H163.2c-27.7 0-40.13 8.72-46.03 31.93L62.68 267.6Z" class="cls-5"/><path d="m100.11 394.16 6.8 9.49h52.44l21.29-84.25H159.1l-18.21 72.32h-19.11l18.34-72.32h-27.06l-1.79 1.54 5.38 7.31zM101.65 348.9l5.13-20.26-6.92-9.62H56.9l-11.8 9.62-7.05 28.33 36.29 15.26-5 19.49H50.36l2.31-9.1-18.98-8.72-5 20.26 6.8 9.49h43.08l11.67-9.49 7.18-28.47-36.29-15.26 4.88-19.49h18.97l-2.31 9.36zM249.88 328.64l-6.93-9.62h-52.44l-21.29 84.24h21.55l18.2-72.32h19.11l-18.21 72.32h27.06l1.66-1.54-5.38-7.18zM316.3 348.9l5-20.26-6.8-9.62h-43.08l-11.67 9.62-7.18 28.33 36.29 15.26-4.88 19.49h-18.97l2.31-9.1-18.98-8.72-5.13 20.26 6.92 9.49h42.96l11.8-9.49 7.05-28.47-36.29-15.26 5-19.49h18.98l-2.31 9.36z" class="cls-4"/><path d="m33.69 373.9 7.82 11.8-1.66 6.66 3.84 5.39h30.39l6.03-4.87 10.13 1.28-11.67 9.49H35.49l-6.8-9.49z" class="cls-3"/><path d="m69.34 391.72 10.77 1.16 6.15-23.98-36.67-15.39 6.03-23.72-10.52-1.15-7.05 28.33 36.29 15.26zM91.65 325.05H61.9l-6.28 4.74 10.39 1.15h18.97l-2.31 9.36 11.29-3.46 1.66-6.41zM248.34 373.9l7.69 11.8-1.66 6.66 3.97 5.39h30.26l6.16-4.87 10.13 1.28-11.8 9.49h-42.96l-6.92-9.49z" class="cls-3"/><path d="m283.98 391.72 10.78 1.16 6.02-23.98-36.67-15.39 6.03-23.72-10.39-1.15-7.18 28.33 36.29 15.26zM306.17 325.05h-29.75l-6.28 4.74 10.51 1.15h18.98l-2.31 9.36 11.28-3.46 1.54-6.41zM111.27 320.94l16.8 4.11-16.93 67.31 3.97 5.39h34.88l9.36 5.9h-52.44l-6.8-9.49 16.54-65.91z" class="cls-3"/><path d="m159.1 319.4 9.36 5.65-18.47 72.7-9.1-6.03zM199.87 325.05l-9.36-6.03-21.29 84.24h21.55l-9.36-5.51zM221.8 397.75l17.05-67.45-3.97-5.25h-35.01l9.1 5.89h19.11l-18.21 72.32h27.06l1.66-1.54z" class="cls-3"/><path d="m56.64 283.63-.51.51 1.8 2.31-5.39 22.18h7.44l.51-.51-1.92-2.18 1.41-6.03 11.54-3.59 2.44-9.74-2.31-3.08-15 .13Zm10.13 10.13-5.51 1.67 1.8-7.44h5.13l-1.41 5.77ZM118.58 283.63h-5.52l-2.18 8.98-5.38 1.28 2.43-10.26h-7.43l-.52.51 1.8 2.31-5.39 22.18h5.52l2.43-9.87 5.39-1.28-2.69 11.15h7.43l.52-.51-1.8-2.18zM149.48 283.63l-3.72 2.95-4.62 18.98 2.31 3.08h10.13l3.72-3.08 4.62-18.98-2.31-2.95zm2.56 20.9h-5.13l4.1-16.8h5.13zM248.08 286.58l-2.31-2.95h-13.33l-6.16 25h5.52l5.13-20.9h5.38l-5.13 20.9h7.57l.51-.51-1.92-2.18zM282.7 283.63h-7.43l-.52.51 1.8 2.31-5.52 22.18h7.57l.51-.51-1.79-2.18zM322.84 306.07l-2.95-9.75 9.87-12.69h-5.38l-5.77 7.69-1.93-7.69h-7.44l-.64.38 3.08 2.31 2.82 10.13-9.36 12.18h5.39l5.51-7.43 1.8 7.43h7.56l.51-.51zM197.43 304.53h-6.54l1.54-6.41h5.39l1.02-4.1h-5.38l1.54-6.29h6.02l1.54 2.18.64-.38 1.41-5.9h-16.02l-.52.51 1.67 2.31-5.38 22.18h14.61l1.41-5.89-.38-.39z" class="cls-4"/><path d="m69.34 263.63 142.07-77.83-96.3 77.83 116.94-67.19-1.92 13.46 19.49-10.77 44.11 41.67 23.46-70.52 33.86-2.18-17.31-42.7 30.77-24.1-39.75-15.39 10.13-42.83-33.85 15.52-17.44-36.8-27.05 27.05-48.73-21.79-6.67 43.46-43.47 9.36 25.65 15.52-25.77 12.95 21.92 1.92-90.39 70.27L180 132.33l-97.45 74.24 103.73-54.11L75.49 235.8l122.2-65.13z" style="stroke-width:0;fill:#f9a01b"/><path d="M329.5 126.04c-1.67 39.11-34.62 69.37-73.6 67.83-39.11-1.67-69.37-34.62-67.83-73.6 1.67-39.11 34.62-69.37 73.6-67.83s69.37 34.49 67.83 73.6" style="stroke-width:0;fill:#e56020"/><path d="M267.44 184.13c-39.11-1.67-69.37-34.62-67.83-73.6.77-18.08 8.21-34.24 19.87-46.29-18.21 12.18-30.52 32.44-31.41 56.03-1.67 39.11 28.72 72.06 67.83 73.6 21.03.9 40.26-7.57 53.73-21.54-12.05 7.95-26.67 12.44-42.19 11.8" style="stroke-width:0;fill:#b95915"/><path d="M329.5 123.86c0-2.56-.13-5-.26-7.57-4.1-2.82-8.98-5-14.75-5.77-1.15-.13-2.18-.26-3.21-.26-.64-4.62-1.8-9.23-3.21-13.72.77 0 1.41.13 2.18.13 5 .38 9.87.9 14.75 1.67-.64-1.8-1.41-3.59-2.18-5.26-5.39-.77-11.03-1.41-16.54-1.92-1.8-4.62-3.97-8.98-6.54-13.08 3.59-.77 6.8-2.18 9.49-4.74a30.4 30.4 0 0 0-4.23-3.85c-2.31 2.05-5.26 3.21-8.59 3.59-.51-.77-1.03-1.41-1.54-2.18A80.3 80.3 0 0 0 278.46 55a71.5 71.5 0 0 0-16.67-2.69h-.9c10.77 4.23 20.39 11.28 28.08 20.9-7.31-.77-15.9-3.21-24.23-5.64-2.44-.77-4.87-1.41-7.31-2.05-14.36-3.97-25.26-4.62-33.59-3.85-6.15 3.46-11.67 7.95-16.54 12.95 8.85-3.72 26.93-10.13 48.72-3.97 2.31.64 4.74 1.28 7.18 2.05 9.62 2.82 20.52 6.03 29.75 6.15 2.56 3.85 4.87 7.95 6.67 12.18-1.8-.13-3.72-.13-5.51-.13-45.39-.77-84.37 12.82-106.04 34.49.13 4.36.64 8.46 1.41 12.57 6.15-8.72 15.13-16.67 26.8-23.21 22.05-12.31 51.16-18.85 82.19-18.34 1.03 0 2.18 0 3.21.13a84 84 0 0 1 3.46 13.85c-20 .9-32.95 13.34-47.83 26.54-13.34 11.92-29.62 23.85-53.47 31.03 2.31 2.82 4.74 5.39 7.31 7.69 22.44-9.1 37.31-23.08 50.01-34.36 14.36-12.82 26.54-25.13 44.62-25.64.51 5 .51 10.13 0 15.26-2.44 27.7-18.46 51.29-40.39 62.83 5.64-.51 11.03-1.67 16.16-3.46 1.8-1.41 3.46-2.95 5.13-4.62 14.36-14.1 23.21-33.47 25.13-54.24.51-5.26.51-10.39 0-15.52.9.13 1.8.13 2.69.38 6.28.77 11.16 3.85 15 7.57Z" class="cls-1"/></svg>