<svg xmlns="http://www.w3.org/2000/svg" id="Layer" viewBox="0 0 420 479.1"><defs><style>.cls-1{fill:#fff}.cls-1,.cls-2,.cls-3{stroke-width:0}.cls-2{fill:#592d81}.cls-3{fill:#63717a}</style></defs><g id="Layer_2" data-name="Layer 2"><path d="m420 0-60.15 60.45-50.4-50.1-50.4 50.1-50.4-50.4-50.1 50.1-50.1-50.1-50.1 50.4L0 1.2v267.15C0 384.6 93.3 479.1 209.4 479.1S420 384.6 420 268.35z" class="cls-1"/><path d="M18.75 304.95c4.95 25.2 14.85 48.75 29.25 70.5 8.85-15.45 26.25-34.2 60.6-42.45-2.55-8.85-4.95-18.15-6.9-27.9zM61.65 393.45c37.05 43.5 90.6 68.4 146.7 68.85-5.4-2.7-10.35-5.7-15.6-9-23.85-15.45-56.7-45.45-77.85-101.1-33.15 7.35-47.4 26.25-53.25 41.25M135.75 349.5c15.15 37.8 37.8 66.9 67.5 86.4 19.65 12.9 38.7 18.6 51 21.45 31.2-7.05 60.3-22.2 84.45-43.5-18.9-2.1-38.7-12.9-58.95-24.45-32.25-18-72.15-40.35-126.15-40.35-5.85-.3-11.85-.15-17.85.45" class="cls-3"/><path d="M216.75 206.55h-69.3v82.65h28.8v-66.45H198v66.45h27.45v-70.95c0-6.15-3.9-11.7-8.7-11.7M237.45 206.55v70.95c0 6.3 3.9 11.7 8.55 11.7h69.45v-50.4h-27.6v33.75h-21.6v-50.4h49.35v-15.9zM70.5 206.55l-15.6 33.6h-9v-33.6H17.1v82.8h28.8v-33.3h9l15.6 33.3h28.8l-20.1-41.1 20.1-41.7zM106.8 206.55h29.7v82.65h-29.7zM402.9 229.05V206.7h-76.2v37.8c0 6.3 3.9 11.4 8.55 11.4h38.85v18h-47.55v15.6h76.2v-37.95c0-5.85-3.3-11.4-7.5-11.4H355.2v-17.4h20.1v6.3zM321.75 122.85H297.6l49.95-50.25-37.95-38.1-50.4 50.25-50.25-50.25-88.05 88.35H96.45l50.25-50.4-37.95-37.95-50.1 50.25L17.1 43.5v148.05h385.8V41.7z" class="cls-2"/><path d="M101.4 175.65c0 2.1 1.65 3.9 3.9 3.9h21.45v-5.7h-17.7V155.1h17.7v-5.85h-25.5v26.4zM66 149.1v30.45h7.8v-7.95h9.9v7.95h7.8v-26.7c0-2.25-1.8-3.9-4.35-3.9h-21v.15zm17.55 16.65h-9.9V154.8h9.9zM384.45 149.1H366.6c-2.1 0-3.9 1.65-3.9 3.9v22.65c0 2.1 1.65 3.9 3.9 3.9h17.85c2.1 0 3.9-1.8 3.9-3.9V153c.3-2.25-1.5-3.9-3.9-3.9m-3.75 24.45h-9.75V154.8h9.75zM30.6 163.35c0 2.1 1.65 3.9 3.9 3.9h13.8v6.6H30.6v5.85h25.5v-14.4c0-1.95-1.35-3.75-3.6-3.9H38.25v-6.6h17.7v-5.85H30.6zM193.05 149.1h-21.6v30.45h7.8v-7.95h9.9v7.95h7.8v-26.7c.15-2.1-1.8-3.75-3.9-3.75M189 165.75h-9.9V154.8h9.9zM328.5 154.8h9v24.75h7.65V154.8H354v-5.7h-25.5zM246.75 149.1h-39.3v30.45h7.8v-24.6H225v24.6h7.95v-24.6h9.75v24.6h7.8v-26.7c0-2.1-1.65-3.75-3.75-3.75M316.65 149.1H294.9v30.45h7.8v-24.6h9.9v24.6h7.8v-26.7c.15-2.1-1.5-3.75-3.75-3.75M261.3 175.65c0 2.1 1.65 3.9 3.9 3.9h21.6v-5.7h-17.7v-6.6h17.7v-5.85h-17.7v-6.75h17.7v-5.7h-25.5zM157.35 168.3h4.2v-15.6c0-2.25-1.8-3.9-4.35-3.9h-21.3v30.45h7.8v-11.1h5.7l4.8 11.1h7.5zm-3.45-5.85H144v-7.8h9.9z" class="cls-1"/><path d="M149.1 328.35c40.95-.75 81.9 9.6 133.65 39 38.4 21.75 55.2 28.35 66.75 25.65 10.5-2.55 20.55-9 37.8-45.45 6.6-14.1 11.4-30.45 13.5-42.6H122.1c1.95 8.55 3.9 16.95 6.45 24.45 6.6-.6 13.8-1.05 20.55-1.05" class="cls-3"/></g></svg>