<svg xmlns="http://www.w3.org/2000/svg" id="Layer" viewBox="0 0 420 411.06"><defs><style>.cls-1{stroke-width:0}</style></defs><path d="M131.58 332.09h-16.19l-19.4 77.86h13.67l4.19-17.58h19.26l4.33 17.58h13.67zm-14.37 46.6 6.42-26.23 6.28 26.23zM201.91 332.09v77.72h-13.54v-32.65h-17.72v32.65h-13.53v-77.72h13.53v31.4h17.72v-31.4zM101.16 345.63H86.23v64.18H72.7v-64.18H57.91v-13.54h43.25zM51.77 332.09v61.67c0 4.6-1.67 8.93-4.88 12.14-3.21 3.07-7.4 4.88-12.14 4.88H22.89c-4.6 0-8.93-1.67-12.14-4.88s-4.88-7.4-4.88-12.14v-61.67h13.67v65.02H38.1v-65.02zM266.65 332.37v61.67c0 4.6-1.67 8.93-4.88 12.14s-7.4 4.88-12.14 4.88h-11.86c-4.6 0-8.93-1.67-12.14-4.88s-4.88-7.4-4.88-12.14v-15.49h13.67v18.98h18.56v-65.16zM306.56 332.37h-16.19l-19.4 77.86h13.67l4.19-17.58h19.26l4.33 17.58h13.67zm-1.67 46.74h-12.7l6.42-26.23zM370.33 345.77l-25.12 50.79h25.12v13.67h-40.47v-13.25l.14-.14 25.12-50.79h-25.26v-13.68h40.47v13.4M417.49 345.77l-25.12 50.79h25.26v13.67h-40.61v-13.25l.14-.14 25.12-50.79h-25.26v-13.68h40.61v13.26zM420 .14l-41.02 88.05H214.47L162.7 199.26h-46.47c.42-5.58 1.53-11.02 3.21-16.47 4.47-13.4 12.84-24.42 23.3-32.37 2.79 3.21 5.3 6.56 7.53 10.19.42.56 1.12.56 1.26 0L226.47 0H420zM39.21 233.72c-4.74 9.35-11.44 17.3-19.53 23.44-6.84-7.81-12.14-17.16-15.63-27.63C1.68 222.55.42 215.44 0 208.32h46.19c-.56 8.79-2.93 17.3-6.98 25.4M76.74 208.33v76.88c-18.84-1.12-36.84-8.79-50.51-21.49 8.79-6.84 16.05-15.63 21.21-25.95 4.74-9.35 7.4-19.26 7.95-29.44zM42.84 182.79c1.81 5.44 2.93 11.02 3.21 16.47H0c.98-18 8.09-35.16 19.67-48.7 10.47 7.81 18.84 18.84 23.16 32.23M76.74 122.51v76.74H55.25c-.42-6.56-1.67-12.98-3.77-19.4-4.88-14.79-13.95-27.07-25.4-36 8.23-7.67 18.28-13.67 29.58-17.44a85.1 85.1 0 0 1 21.07-3.91M107.16 199.26H85.81v-76.74c18.98.98 36.84 8.65 50.65 21.35a74.2 74.2 0 0 0-25.53 36c-2.09 6.42-3.35 12.98-3.77 19.4M136.47 263.86a81.9 81.9 0 0 1-29.44 17.3c-7.12 2.37-14.23 3.63-21.35 4.05v-76.88h21.35c.7 10.19 3.35 20.09 7.95 29.44 5.3 10.33 12.56 19.26 21.49 26.09M162.7 208.33c-.98 18.14-8.09 35.3-19.81 48.84-8.23-6.14-14.93-14.09-19.67-23.58-4.05-8.09-6.42-16.6-6.98-25.4h46.47v.14Z" class="cls-1"/></svg>