<svg xmlns="http://www.w3.org/2000/svg" id="Layer" viewBox="0 0 420 358.16"><defs><style>.cls-1{stroke-width:0}</style></defs><path d="M279.07 48.83c-2.67-4-5.78-7.79-9.23-11.12-1.45-1.45-3-2.89-4.67-4.23L298.76 0h-97.55L163.5 37.71l-.11.11c-3.45 3.45-6.45 7.12-9.23 11.12-2.67 4-5.01 8.34-6.9 12.79-3.89 9.23-5.9 19.13-5.9 29.25s2 20.02 5.9 29.25c1.89 4.45 4.23 8.79 6.9 12.79s5.78 7.79 9.23 11.12c1.45 1.45 3 2.89 4.67 4.23l-33.48 33.48h97.55l37.82-37.82c3.34-3.34 6.45-7.12 9.12-11.01 2.67-4 5.01-8.34 6.9-12.79 3.89-9.23 5.9-19.13 5.9-29.25s-2-20.02-5.9-29.25c-1.78-4.56-4.12-8.79-6.9-12.9" class="cls-1"/><path d="M265.5 42.04c-1.45-1.45-3-2.89-4.56-4.23l-40.93 41.04c2 .56 3.89 1.67 5.56 3.23 4.89 4.89 4.89 13.01 0 17.91l-75.86 75.86h8.9l71.41-71.41c7.34-7.34 7.45-19.35.11-26.69l4.45-4.45c9.79 9.9 9.79 25.81-.11 35.59l-66.96 66.96h8.9l62.51-62.51c12.24-12.24 12.35-32.15.11-44.49l4.45-4.45c14.68 14.79 14.68 38.6-.11 53.39l-58.06 58.06h8.9l53.61-53.61c17.24-17.24 17.24-45.05.11-62.29l4.45-4.45c19.58 19.69 19.58 51.5-.11 71.19l-49.16 49.16h8.9l44.71-44.71c22.13-22.13 22.13-57.95.11-80.08l4.45-4.45c24.58 24.58 24.47 64.4-.11 88.98l-40.26 40.26h8.9l35.82-35.82c26.92-27.14 26.92-70.96-.11-97.99" style="stroke-width:0;fill:#fff"/><path d="M167.96 139.93c1.45 1.45 3 2.89 4.56 4.23l40.93-40.93c-2-.56-3.89-1.67-5.56-3.23-4.89-4.89-4.89-13.01 0-17.91l75.97-75.97h-8.9l-71.52 71.52c-7.34 7.34-7.45 19.35-.11 26.69l-4.45 4.45c-9.79-9.9-9.79-25.81.11-35.59l67.07-67.07h-8.9l-62.62 62.62c-12.24 12.24-12.35 32.15-.11 44.49l-4.45 4.45c-14.68-14.79-14.68-38.6.11-53.39l58.17-58.17h-8.9l-53.72 53.72c-17.24 17.24-17.24 45.05-.11 62.29l-4.45 4.45c-19.58-19.69-19.58-51.5.11-71.19l49.28-49.27h-8.9l-44.83 44.83c-22.13 22.13-22.13 57.95-.11 80.08l-4.45 4.45c-24.58-24.58-24.47-64.4.11-88.98l40.38-40.38h-8.9l-35.93 35.93c-26.92 27.03-26.92 70.85.11 97.88" style="stroke-width:0;fill:#cf0a2c"/><path d="M94.43 334.58h-4.78v-4.79h14.91v4.79h-4.9v23.58h-5.23zM120.13 342.47l1.11-1.22v-6.23l-1.11-1.22h-3.45v8.68h3.45Zm-8.79-12.68h11.79l3.45 3.45v9.9l-2.89 2.78 3.11 12.12h-5.34l-2.89-11.57h-2v11.68h-5.34v-28.36zM139.15 347.15h3.45l-1.67-14.01zm-1.89-17.35h7.67l4.34 28.36h-5.23l-.78-6.56h-4.56l-.78 6.56h-5.01l4.34-28.36ZM155.28 354.04h3.11V333.8h-3.11v-4.01h11.56v4.01h-3.11v20.24h3.11v4.12h-11.56zM174.18 329.79h5.34v23.7h6.01v4.67h-11.35zM212.34 353.93l1.11-1.11v-5.78l-1.33-1.33h-3.11v8.12h3.34v.11Zm-.22-12.35 1.33-1.33v-5.01l-1.11-1.11h-3.23v7.56h3v-.11Zm-8.34-11.79h11.57l3.45 3.45v7.56l-2.78 2.78 2.78 2.78v8.23l-3.45 3.45h-11.57zM226.68 329.79h5.23v23.7h6.12v4.67h-11.35zM250.15 347.15h3.45l-1.78-14.01zm-2-17.35h7.67l4.34 28.36h-5.23l-.78-6.56h-4.56l-.78 6.56h-5.01l4.34-28.36ZM266.17 354.26l7.23-19.68h-7.12v-4.79h12.9v3.79l-7.23 19.68h7.23v4.9h-13.01zM286.53 329.79h12.45v4.68h-7.12v6.89h6.46v4.67h-6.46v7.46h7.23v4.67h-12.56zM315.56 342.47l1.11-1.22v-6.23l-1.11-1.22h-3.45v8.68h3.45Zm-8.79-12.68h11.79l3.45 3.45v9.9l-2.78 2.78 3.11 12.24H317l-2.89-11.57h-2v11.57h-5.34V329.8ZM329.01 354.71v-5.12h5.23v3.01l1.23 1.22h1.89l1.11-1.22v-5.45l-.89-.89h-5.56l-2.89-3.01v-10.01l3.44-3.45h7.79l3.45 3.45v5.01h-5.34v-2.9l-1.11-1.22h-1.78l-1.23 1.22v5.23l1 .89h5.57l2.89 2.89v10.35l-3.45 3.45h-7.9zM30.37 212.78h3.78c3.78 0 6.34 1.22 6.34 5.56v24.36c0 4.12-1.22 6.23-7.12 6.23h-2.89v-36.15zm26.92 8.34c0-16.46-8.9-21.91-26.25-21.91H0l13.57 13.57v98.99h16.8v-49.39h.89c16.91 0 25.69-5.23 26.14-20.8v-20.47h-.11ZM86.2 311.66c10.46 0 21.91-4.23 21.91-18.91v-74.63c0-14.68-11.57-18.91-21.91-18.91s-21.8 4.23-21.8 18.91v74.63c0 14.68 11.57 18.91 21.8 18.91m-5.01-92.1c0-5.67 1.78-6.9 5.23-6.9s5.01 1.22 5.01 6.9v71.74c0 5.67-1.78 6.9-5.01 6.9-3.45 0-5.23-1.22-5.23-6.9zM281.08 275.74h11.01l3.56 35.93h16.91l-12.79-112.45h-25.14l-12.79 112.45h15.13l4.12-35.93Zm5.34-56.73h1l3.23 43.27h-8.01zM420 291.31v-66.63c0-19.8-7.01-25.47-23.58-25.47h-20.24v112.45h23.8c13.13 0 20.02-9.68 20.02-20.35m-16.68-1.45c0 7.23-2 8.34-6.34 8.34h-4v-85.42h4c4.23 0 6.34 1.11 6.34 8.34zM132.25 262.17c7.79-.33 10.34 2.34 10.34 9.12v40.38h16.24s.33-12.12 0-44.6c-.11-10.12-6.45-11.68-6.45-11.68 7.34-3.11 6.45-6.78 6.45-15.13l-.11-21.8c0-14.57-7.9-19.24-21.36-19.24h-22.13v112.45h16.91v-49.5zm-.22-49.5h4c3.78 0 6.34 1.22 6.34 5.56v23.25c0 4.12-1.22 7.23-7.12 7.23h-3.23v-36.04ZM254.71 298.2h-21.35v-98.99h-16.8v112.45h38.15z" class="cls-1"/><path d="M178.19 212.78v98.88h16.79v-98.88h14.46v-13.57h-55.05l13.57 13.57zM334.91 249.26l18.91 62.4h15.24V199.21h-15.13v63.07l-19.02-63.07h-15.24v112.45h15.24z" class="cls-1"/></svg>